<svg width="630" height="398" viewBox="0 0 630 398" fill="none" xmlns="http://www.w3.org/2000/svg">
<path d="M516 1H234C217.984 1 205 13.9837 205 30V92C205 108.016 217.984 121 234 121H516C532.016 121 545 108.016 545 92V30C545 13.9837 532.016 1 516 1Z" fill="white" stroke="#E1E4E5" stroke-width="2"/>
<path d="M285 12H247C230.431 12 217 25.4315 217 42V80C217 96.5685 230.431 110 247 110H285C301.569 110 315 96.5685 315 80V42C315 25.4315 301.569 12 285 12Z" fill="#FF9218"/>
<path fill-rule="evenodd" clip-rule="evenodd" d="M288.267 81.555V84.831C288.267 86.64 286.818 88.108 285.033 88.108H246.233C244.448 88.108 243 86.64 243 84.831V81.502C243 71.588 254.181 65.146 265.633 65.146C277.086 65.146 288.267 71.591 288.267 81.502M273.751 36.363C278.235 40.846 278.235 48.115 273.751 52.599C269.268 57.083 261.999 57.083 257.515 52.599C253.031 48.115 253.031 40.846 257.515 36.363C261.999 31.879 269.268 31.879 273.751 36.363Z" fill="white"/>
<path d="M502.5 28H331.5C328.462 28 326 30.4624 326 33.5C326 36.5376 328.462 39 331.5 39H502.5C505.538 39 508 36.5376 508 33.5C508 30.4624 505.538 28 502.5 28Z" fill="#E1E4E5"/>
<path d="M502.5 55H331.5C328.462 55 326 57.4624 326 60.5C326 63.5376 328.462 66 331.5 66H502.5C505.538 66 508 63.5376 508 60.5C508 57.4624 505.538 55 502.5 55Z" fill="#E1E4E5"/>
<path d="M502.5 82H331.5C328.462 82 326 84.4624 326 87.5C326 90.5376 328.462 93 331.5 93H502.5C505.538 93 508 90.5376 508 87.5C508 84.4624 505.538 82 502.5 82Z" fill="#E1E4E5"/>
<path d="M516 276.957H234C217.96 276.957 204.957 289.96 204.957 306V368C204.957 384.04 217.96 397.043 234 397.043H516C532.04 397.043 545.043 384.04 545.043 368V306C545.043 289.96 532.04 276.957 516 276.957Z" fill="white" stroke="#E1E4E5" stroke-width="1.914"/>
<path d="M285 288H247C230.431 288 217 301.431 217 318V356C217 372.569 230.431 386 247 386H285C301.569 386 315 372.569 315 356V318C315 301.431 301.569 288 285 288Z" fill="#FF9218"/>
<path fill-rule="evenodd" clip-rule="evenodd" d="M288.267 357.555V360.831C288.267 362.64 286.818 364.108 285.033 364.108H246.233C244.448 364.108 243 362.64 243 360.831V357.502C243 347.588 254.181 341.146 265.633 341.146C277.086 341.146 288.267 347.591 288.267 357.502M273.751 312.363C278.235 316.846 278.235 324.115 273.751 328.599C269.268 333.083 261.999 333.083 257.515 328.599C253.031 324.115 253.031 316.846 257.515 312.363C261.999 307.879 269.268 307.879 273.751 312.363Z" fill="white"/>
<path d="M502.5 304H331.5C328.462 304 326 306.462 326 309.5C326 312.538 328.462 315 331.5 315H502.5C505.538 315 508 312.538 508 309.5C508 306.462 505.538 304 502.5 304Z" fill="#E1E4E5"/>
<path d="M502.5 331H331.5C328.462 331 326 333.462 326 336.5C326 339.538 328.462 342 331.5 342H502.5C505.538 342 508 339.538 508 336.5C508 333.462 505.538 331 502.5 331Z" fill="#E1E4E5"/>
<path d="M502.5 358H331.5C328.462 358 326 360.462 326 363.5C326 366.538 328.462 369 331.5 369H502.5C505.538 369 508 366.538 508 363.5C508 360.462 505.538 358 502.5 358Z" fill="#E1E4E5"/>
<path d="M600 139H318C301.984 139 289 151.984 289 168V230C289 246.016 301.984 259 318 259H600C616.016 259 629 246.016 629 230V168C629 151.984 616.016 139 600 139Z" fill="white" stroke="#E1E4E5" stroke-width="2"/>
<path d="M369 150H331C314.431 150 301 163.431 301 180V218C301 234.569 314.431 248 331 248H369C385.569 248 399 234.569 399 218V180C399 163.431 385.569 150 369 150Z" fill="#FF9218"/>
<path fill-rule="evenodd" clip-rule="evenodd" d="M372.267 219.555V222.831C372.267 224.64 370.818 226.108 369.033 226.108H330.233C328.448 226.108 327 224.64 327 222.831V219.502C327 209.588 338.181 203.146 349.633 203.146C361.086 203.146 372.267 209.591 372.267 219.502M357.751 174.363C362.235 178.846 362.235 186.115 357.751 190.599C353.268 195.083 345.999 195.083 341.515 190.599C337.031 186.115 337.031 178.846 341.515 174.363C345.999 169.879 353.268 169.879 357.751 174.363Z" fill="white"/>
<path d="M586.5 166H415.5C412.462 166 410 168.462 410 171.5C410 174.538 412.462 177 415.5 177H586.5C589.538 177 592 174.538 592 171.5C592 168.462 589.538 166 586.5 166Z" fill="#E1E4E5"/>
<path d="M586.5 193H415.5C412.462 193 410 195.462 410 198.5C410 201.538 412.462 204 415.5 204H586.5C589.538 204 592 201.538 592 198.5C592 195.462 589.538 193 586.5 193Z" fill="#E1E4E5"/>
<path d="M586.5 220H415.5C412.462 220 410 222.462 410 225.5C410 228.538 412.462 231 415.5 231H586.5C589.538 231 592 228.538 592 225.5C592 222.462 589.538 220 586.5 220Z" fill="#E1E4E5"/>
<path fill-rule="evenodd" clip-rule="evenodd" d="M216.722 237.845C195.798 237.845 178.833 220.641 178.833 199.423C178.833 178.204 195.798 161 216.722 161C237.646 161 254.611 178.204 254.611 199.423C254.611 220.641 237.646 237.845 216.722 237.845Z" fill="#FF9218"/>
<path d="M230.063 193.019L214.057 210.095L204.448 199.851" stroke="white" stroke-width="6.288" stroke-linecap="round" stroke-linejoin="round"/>
<path d="M163.478 109.435C162.885 114.016 161.298 119.538 158.729 121.413C155.816 123.542 154.916 125.802 154.916 125.802L151.955 124.889L148.416 123.798C148.416 123.798 148.41 123.437 148.432 122.835C148.45 122.239 148.505 121.404 148.622 120.464C148.622 120.464 149.297 119.013 148.351 117.603C147.406 116.196 146.971 113.781 147.637 112.094C148.299 110.412 148.437 106.603 149.063 106.573C150.581 106.488 149.542 111.915 150.38 112.681C151.133 113.379 151.778 112.931 151.893 112.835C151.901 112.829 151.909 112.823 151.917 112.816C155.592 110.07 158.311 99.223 160.81 100.027C161.742 100.326 163.734 107.485 163.478 109.435ZM14.053 222.154C14.053 222.154 17.191 227.584 15.786 230.716C14.385 233.85 9.52 238.028 8.265 239.667C7.015 241.303 2.772 245.626 1.062 242.844C-0.646001 240.069 2.371 232.688 4.463 229.906C6.553 227.119 6.75101 222.336 6.75101 222.336L14.053 222.154Z" fill="#F8AE9D"/>
<path d="M16.0609 229.811C16.0609 229.811 15.8219 235.795 15.5379 237.392C15.2519 238.993 14.9699 238.503 13.8759 237.429C12.7819 236.354 12.7939 233.223 12.3839 233.017C11.9739 232.811 16.0609 229.811 16.0609 229.811Z" fill="#F8AE9D"/>
<path d="M70.9521 108.782C70.9521 108.782 107.556 148.237 118.951 154.42L147.661 120.531C147.661 120.531 153.05 120.909 156.424 125.454C156.424 125.454 145.285 173.249 124.962 179.869C104.639 186.488 63.2061 139.951 63.2061 139.951L70.9521 108.782ZM105.08 398H67.4921C65.6861 395.871 66.3511 388.011 66.6221 385.441C66.6791 384.923 66.7171 384.625 66.7171 384.625C66.7171 384.625 79.5521 374.713 81.3151 382.303C81.3681 382.541 81.4341 382.775 81.5051 383.005C83.7251 390.103 93.6901 393.329 99.4391 394.228C103.184 394.811 104.567 396.688 105.08 398Z" fill="#694823"/>
<path d="M79.7729 398H42.1849C40.3789 395.871 41.0449 388.011 41.3149 385.441C41.3719 384.923 41.4099 384.625 41.4099 384.625C41.4099 384.625 54.2459 374.713 56.0089 382.303C56.0609 382.541 56.1269 382.775 56.1989 383.005C58.4179 390.103 68.3829 393.329 74.1329 394.228C77.8769 394.811 79.2599 396.688 79.7729 398Z" fill="#694823"/>
<path d="M94.812 228.993C94.812 228.993 93.015 248.443 90.903 271.82C88.032 303.577 84.579 342.587 84.237 349.976C83.645 362.809 81.279 383.334 81.279 383.334C81.279 383.334 75.66 388.211 64.414 386.155C64.414 386.155 54.391 356.852 51.53 325.847L51.3979 324.316C48.7329 292.756 44.5959 226.295 44.5959 226.295L94.812 228.993Z" fill="#FF9218"/>
<path d="M84.6179 230.324C84.6179 230.324 81.2289 249.58 77.2039 272.727C71.7339 304.173 65.0899 342.804 64.1489 350.14C62.5169 362.88 58.4619 383.173 58.4619 383.173C58.4619 383.173 52.3509 387.697 41.0669 384.986C41.0669 384.986 33.2119 355.224 32.7859 324.19L32.7749 322.657C32.5929 291.081 33.7109 224.675 33.7109 224.675L84.6179 230.324Z" fill="#FF9218"/>
<path d="M78.7959 115.887C65.8799 119.966 44.5659 108.467 44.5659 108.467C44.5659 108.467 55.4379 100.019 54.8159 81.433L64.8019 89.483L71.5869 94.948C71.5869 94.948 71.5599 98.172 70.8169 103.821C70.6209 105.306 70.2629 107.627 71.3759 108.816C75.7009 113.432 78.7959 115.887 78.7959 115.887Z" fill="#F8AE9D"/>
<path d="M75.536 94.643C75.536 94.643 54.1991 98.19 52.1951 84.867C50.1921 71.544 46.091 63.029 59.628 60.203C73.165 57.376 76.5871 62.059 78.3351 66.343C80.0841 70.628 81.032 93.378 75.536 94.643Z" fill="#F8AE9D"/>
<path d="M96.828 235.885C96.439 236.207 95.987 236.404 95.468 236.404C90.616 236.337 76.47 239.034 64.503 237.804C54.413 236.833 45.478 233.846 35.889 229.548C34.615 228.976 31.686 227.41 31.748 225.988C31.793 224.427 31.945 222.169 32.142 219.32C32.822 209.419 34.002 192.393 32.848 172.747C32.6436 169.131 32.5332 165.51 32.517 161.888C32.419 135.26 37.696 111.844 48.309 103.919C49.217 103.271 54.78 105.99 59.892 108.508C64.614 110.838 68.317 111.084 72.781 110.18L78.259 114.134C83.693 119.178 89.645 126.039 92.235 136.45C94.435 145.314 95.728 161.293 96.439 177.854C96.761 185.358 97.02 192.93 97.087 200.108V200.362C97.15 201.074 97.15 201.852 97.15 202.563C97.409 221.006 97.15 235.626 96.828 235.885Z" fill="#694823"/>
<path d="M10.8551 224.919C14.9051 225.469 19.2261 224.901 19.2261 224.901C19.2261 224.901 28.9931 187.486 30.3301 184.045C31.6681 180.603 63.1531 138.941 63.1531 138.941L47.0431 104.532C47.0431 104.532 14.0321 167.682 10.8181 176.473C5.50708 190.999 5.21509 222.898 5.21509 222.898C5.21509 222.898 7.67209 224.489 10.8551 224.919ZM49.7951 80.095C50.9561 82.496 54.3261 82.852 54.0151 80.203C53.6621 77.188 53.6661 73.244 56.1171 73.977C58.5681 74.711 58.6931 76.674 59.6991 75.529C60.7061 74.384 60.7241 69.554 68.0221 69.214C75.3211 68.879 78.2861 71.419 81.6761 69.925C83.7081 69.031 84.5871 66.833 84.9661 65.212C85.0741 64.753 84.7391 64.112 84.4331 64.47C84.1431 64.809 83.4141 64.787 83.6221 64.393C84.9071 61.954 86.8301 56.629 81.9311 52.663C75.3751 47.354 68.6931 50.829 64.9011 51.057C56.5421 51.562 51.1441 52.063 48.4161 57.555C46.1551 62.111 46.5421 73.366 49.7951 80.095Z" fill="#694823"/>
<path fill-rule="evenodd" clip-rule="evenodd" d="M615.555 57.613H612.971C612.672 57.6127 612.385 57.4938 612.174 57.2823C611.963 57.0707 611.844 56.784 611.844 56.485V53.902C611.844 53.277 612.352 52.774 612.971 52.774H615.555C616.175 52.774 616.683 53.282 616.683 53.902V56.485C616.683 56.6332 616.655 56.7801 616.598 56.9171C616.541 57.0542 616.458 57.1787 616.354 57.2835C616.249 57.3883 616.124 57.4714 615.987 57.5279C615.85 57.5845 615.703 57.6134 615.555 57.613ZM606.597 57.613H604.014C603.394 57.613 602.886 57.105 602.886 56.485V53.902C602.886 53.277 603.394 52.774 604.014 52.774H606.597C607.217 52.774 607.725 53.282 607.725 53.902V56.485C607.725 57.105 607.217 57.613 606.597 57.613ZM597.634 57.613H595.05C594.43 57.613 593.922 57.105 593.922 56.485V53.902C593.922 53.277 594.43 52.774 595.05 52.774H597.634C598.253 52.774 598.761 53.282 598.761 53.902V56.485C598.761 56.6332 598.733 56.7799 598.676 56.9169C598.62 57.0539 598.537 57.1783 598.432 57.2831C598.327 57.388 598.203 57.471 598.066 57.5276C597.929 57.5843 597.782 57.6133 597.634 57.613ZM588.675 57.613H586.091C585.792 57.612 585.506 57.4928 585.295 57.2814C585.083 57.0701 584.964 56.7838 584.963 56.485V53.902C584.964 53.603 585.083 53.3164 585.294 53.105C585.505 52.8935 585.792 52.7745 586.091 52.774H588.675C589.3 52.774 589.808 53.282 589.808 53.902V56.485C589.805 56.7841 589.684 57.0699 589.472 57.2809C589.26 57.4919 588.974 57.6112 588.675 57.613ZM579.716 57.613H577.133C576.833 57.613 576.546 57.4943 576.334 57.2829C576.121 57.0715 576.001 56.7846 576 56.485V53.902C576 53.7535 576.03 53.6065 576.087 53.4695C576.144 53.3324 576.228 53.208 576.333 53.1032C576.438 52.9984 576.563 52.9154 576.7 52.859C576.837 52.8025 576.985 52.7736 577.133 52.774H579.716C580.336 52.774 580.844 53.282 580.844 53.902V56.485C580.844 57.105 580.336 57.613 579.716 57.613ZM606.269 47.845H603.685C603.065 47.845 602.557 47.336 602.557 46.717V44.128C602.557 43.508 603.065 43 603.685 43H606.269C606.893 43 607.396 43.508 607.396 44.128V46.712C607.397 46.8605 607.368 47.0078 607.312 47.1453C607.256 47.2828 607.173 47.4078 607.068 47.5131C606.964 47.6184 606.839 47.7019 606.702 47.7589C606.565 47.8159 606.418 47.8451 606.269 47.845ZM597.31 47.845H594.727C594.107 47.845 593.599 47.336 593.599 46.717V44.128C593.599 43.508 594.107 43 594.727 43H597.31C597.93 43 598.438 43.508 598.438 44.128V46.712C598.439 46.8606 598.41 47.0079 598.354 47.1454C598.297 47.2828 598.215 47.4079 598.11 47.5132C598.005 47.6185 597.88 47.702 597.743 47.7589C597.606 47.8159 597.459 47.8451 597.31 47.845ZM588.352 47.845H585.768C585.468 47.8447 585.181 47.726 584.969 47.5146C584.757 47.3033 584.637 47.0165 584.635 46.717V44.128C584.635 43.508 585.143 43 585.768 43H588.352C588.971 43 589.48 43.508 589.48 44.128V46.712C589.48 47.336 588.971 47.845 588.352 47.845ZM597.634 68.107H595.05C594.43 68.107 593.922 67.599 593.922 66.979V64.396C593.922 63.771 594.43 63.268 595.05 63.268H597.634C598.253 63.268 598.761 63.776 598.761 64.396V66.979C598.761 67.1272 598.733 67.2739 598.676 67.4109C598.62 67.5479 598.537 67.6723 598.432 67.7771C598.327 67.882 598.203 67.965 598.066 68.0217C597.929 68.0783 597.782 68.1073 597.634 68.107ZM588.675 68.107H586.091C585.792 68.1059 585.506 67.9868 585.295 67.7755C585.083 67.5641 584.964 67.2778 584.963 66.979V64.396C584.964 64.097 585.083 63.8104 585.294 63.599C585.505 63.3875 585.792 63.2685 586.091 63.268H588.675C589.3 63.268 589.808 63.776 589.808 64.396V66.979C589.805 67.2781 589.684 67.5639 589.472 67.7749C589.26 67.9859 588.974 68.1052 588.675 68.107ZM615.555 338.613H612.971C612.672 338.613 612.385 338.494 612.174 338.282C611.963 338.071 611.844 337.784 611.844 337.485V334.902C611.844 334.277 612.352 333.774 612.971 333.774H615.555C616.175 333.774 616.683 334.282 616.683 334.902V337.485C616.683 337.633 616.655 337.78 616.598 337.917C616.541 338.054 616.458 338.179 616.354 338.284C616.249 338.388 616.124 338.471 615.987 338.528C615.85 338.585 615.703 338.613 615.555 338.613ZM606.597 338.613H604.014C603.394 338.613 602.886 338.105 602.886 337.485V334.902C602.886 334.277 603.394 333.774 604.014 333.774H606.597C607.217 333.774 607.725 334.282 607.725 334.902V337.485C607.725 338.105 607.217 338.613 606.597 338.613ZM597.634 338.613H595.05C594.43 338.613 593.922 338.105 593.922 337.485V334.902C593.922 334.277 594.43 333.774 595.05 333.774H597.634C598.253 333.774 598.761 334.282 598.761 334.902V337.485C598.761 337.633 598.733 337.78 598.676 337.917C598.62 338.054 598.537 338.178 598.432 338.283C598.327 338.388 598.203 338.471 598.066 338.528C597.929 338.584 597.782 338.613 597.634 338.613ZM588.675 338.613H586.091C585.792 338.612 585.506 338.493 585.295 338.281C585.083 338.07 584.964 337.784 584.963 337.485V334.902C584.964 334.603 585.083 334.316 585.294 334.105C585.505 333.894 585.792 333.775 586.091 333.774H588.675C589.3 333.774 589.808 334.282 589.808 334.902V337.485C589.805 337.784 589.684 338.07 589.472 338.281C589.26 338.492 588.974 338.611 588.675 338.613ZM579.716 338.613H577.133C576.833 338.613 576.546 338.494 576.334 338.283C576.121 338.072 576.001 337.785 576 337.485V334.902C576 334.754 576.03 334.607 576.087 334.469C576.144 334.332 576.228 334.208 576.333 334.103C576.438 333.998 576.563 333.915 576.7 333.859C576.837 333.802 576.985 333.774 577.133 333.774H579.716C580.336 333.774 580.844 334.282 580.844 334.902V337.485C580.844 338.105 580.336 338.613 579.716 338.613ZM606.269 328.845H603.685C603.065 328.845 602.557 328.336 602.557 327.717V325.128C602.557 324.508 603.065 324 603.685 324H606.269C606.893 324 607.396 324.508 607.396 325.128V327.712C607.397 327.861 607.368 328.008 607.312 328.145C607.256 328.283 607.173 328.408 607.068 328.513C606.964 328.618 606.839 328.702 606.702 328.759C606.565 328.816 606.418 328.845 606.269 328.845ZM597.31 328.845H594.727C594.107 328.845 593.599 328.336 593.599 327.717V325.128C593.599 324.508 594.107 324 594.727 324H597.31C597.93 324 598.438 324.508 598.438 325.128V327.712C598.439 327.861 598.41 328.008 598.354 328.145C598.297 328.283 598.215 328.408 598.11 328.513C598.005 328.618 597.88 328.702 597.743 328.759C597.606 328.816 597.459 328.845 597.31 328.845ZM588.352 328.845H585.768C585.468 328.845 585.181 328.726 584.969 328.515C584.757 328.303 584.637 328.017 584.635 327.717V325.128C584.635 324.508 585.143 324 585.768 324H588.352C588.971 324 589.48 324.508 589.48 325.128V327.712C589.48 328.336 588.971 328.845 588.352 328.845ZM597.634 349.107H595.05C594.43 349.107 593.922 348.599 593.922 347.979V345.396C593.922 344.771 594.43 344.268 595.05 344.268H597.634C598.253 344.268 598.761 344.776 598.761 345.396V347.979C598.761 348.127 598.733 348.274 598.676 348.411C598.62 348.548 598.537 348.672 598.432 348.777C598.327 348.882 598.203 348.965 598.066 349.022C597.929 349.078 597.782 349.107 597.634 349.107ZM588.675 349.107H586.091C585.792 349.106 585.506 348.987 585.295 348.775C585.083 348.564 584.964 348.278 584.963 347.979V345.396C584.964 345.097 585.083 344.81 585.294 344.599C585.505 344.388 585.792 344.269 586.091 344.268H588.675C589.3 344.268 589.808 344.776 589.808 345.396V347.979C589.805 348.278 589.684 348.564 589.472 348.775C589.26 348.986 588.974 349.105 588.675 349.107Z" fill="#E1E4E5"/>
<path d="M187.548 121H187.453C186.894 128.643 181 128.761 181 128.761C181 128.761 187.5 128.883 187.5 137.714C187.5 128.883 194 128.761 194 128.761C194 128.761 188.107 128.643 187.548 121ZM144.578 199H144.425C143.521 211.346 134 211.536 134 211.536C134 211.536 144.5 211.734 144.5 226C144.5 211.734 155 211.536 155 211.536C155 211.536 145.481 211.346 144.578 199ZM270.548 239.143H270.453C269.894 246.786 264 246.904 264 246.904C264 246.904 270.5 247.026 270.5 255.857C270.5 247.026 277 246.904 277 246.904C277 246.904 271.107 246.786 270.548 239.143ZM270.548 139H270.453C269.894 146.643 264 146.761 264 146.761C264 146.761 270.5 146.883 270.5 155.714C270.5 146.883 277 146.761 277 146.761C277 146.761 271.107 146.643 270.548 139ZM181.443 253H181.336C180.7 261.688 174 261.822 174 261.822C174 261.822 181.388 261.961 181.388 272C181.388 261.961 188.777 261.822 188.777 261.822C188.777 261.822 182.079 261.688 181.443 253Z" fill="#E1E4E5"/>
</svg>
