<svg width="710" height="376" viewBox="0 0 710 376" fill="none" xmlns="http://www.w3.org/2000/svg">
<path d="M355 376C551.061 376 710 369.732 710 362C710 354.268 551.061 348 355 348C158.939 348 0 354.268 0 362C0 369.732 158.939 376 355 376Z" fill="url(#paint0_linear_0_1)"/>
<path d="M530.151 62.857L446.448 77.012L446.683 130.385L394.175 106.543L369.144 149.148L367.074 148.301L222.723 91.213L218.865 172.096L129.092 181.783L128.528 176.516L213.783 167.346L217.829 83.595L366.933 142.564L392.057 99.772L441.366 122.202L441.131 72.5441L523.94 58.578L514.953 11.506L520.129 10.519L530.151 62.857Z" fill="#E1E4E5"/>
<path d="M226.957 77.5761C231.803 79.7861 233.921 85.4761 231.756 90.2721C229.545 95.1161 223.852 97.2321 219.006 95.0221C214.159 92.8121 212.042 87.1221 214.254 82.3251C214.773 81.176 215.513 80.1409 216.434 79.2795C217.354 78.418 218.436 77.7473 219.617 77.3058C220.798 76.8644 222.054 76.661 223.314 76.7073C224.574 76.7537 225.812 77.049 226.957 77.5761ZM220.323 160.998C225.169 163.208 227.287 168.898 225.075 173.694C222.864 178.538 217.171 180.654 212.325 178.444C207.478 176.234 205.361 170.544 207.572 165.747C209.784 160.951 215.477 158.787 220.323 160.998ZM373.614 133.629C378.46 135.839 380.577 141.529 378.366 146.326C376.154 151.169 370.461 153.285 365.662 151.075C360.816 148.865 358.699 143.175 360.91 138.378C363.074 133.535 368.768 131.419 373.614 133.629ZM397.609 93.3281C402.456 95.5381 404.573 101.228 402.409 106.025C401.885 107.175 401.139 108.211 400.214 109.072C399.289 109.934 398.203 110.604 397.019 111.045C395.834 111.486 394.575 111.689 393.311 111.643C392.048 111.596 390.807 111.301 389.658 110.774C384.812 108.564 382.694 102.874 384.859 98.0781C387.07 93.2811 392.763 91.1181 397.609 93.3281ZM447.248 65.8201C448.398 66.3429 449.434 67.0877 450.296 68.0119C451.158 68.936 451.829 70.0212 452.271 71.2052C452.712 72.3893 452.915 73.6488 452.869 74.9116C452.823 76.1744 452.527 77.4156 452 78.5641C449.788 83.4071 444.095 85.5231 439.296 83.3131C434.45 81.1031 432.333 75.4131 434.544 70.6161C435.059 69.4633 435.797 68.4239 436.716 67.5579C437.634 66.692 438.715 66.0165 439.897 65.5706C441.078 65.1247 442.335 64.9172 443.597 64.96C444.859 65.0028 446.1 65.2951 447.248 65.8201ZM531.045 51.9931C535.891 54.2031 538.008 59.8931 535.797 64.6891C535.273 65.8394 534.527 66.875 533.602 67.7367C532.678 68.5983 531.592 69.2689 530.407 69.7102C529.223 70.1514 527.963 70.3546 526.7 70.3081C525.436 70.2616 524.195 69.9663 523.046 69.4391C521.896 68.9162 520.86 68.1714 519.998 67.2473C519.136 66.3232 518.465 65.2379 518.023 64.0539C517.582 62.8699 517.379 61.6103 517.425 60.3475C517.471 59.0847 517.767 57.8435 518.294 56.6951C520.505 51.8991 526.198 49.7831 531.045 51.9931ZM522.152 1.77106C526.951 3.98206 529.116 9.67207 526.951 14.4681C524.74 19.3121 519.047 21.4281 514.201 19.2181C513.051 18.6953 512.015 17.9506 511.153 17.0265C510.291 16.1024 509.62 15.0171 509.178 13.8331C508.737 12.649 508.533 11.3894 508.58 10.1265C508.626 8.8637 508.922 7.62246 509.449 6.47407C511.613 1.72407 517.306 -0.438935 522.152 1.77106ZM133.092 173.035C137.891 175.198 140.055 180.935 137.844 185.731C135.632 190.575 129.939 192.691 125.14 190.481C120.294 188.271 118.177 182.581 120.341 177.784C122.552 172.941 128.245 170.825 133.092 173.035Z" fill="#FF9218"/>
<path d="M268.108 348.7V169.143H292.969V348.7H268.108ZM308.513 348.345V169.089H337.119V348.345H308.513ZM352.382 348.699V133.354H378.398V348.699H352.382ZM393.942 348.344V227.823H422.548V348.344H393.942ZM437.811 348.344V103.301H463.406V348.344H437.811ZM478.217 348.345V169.089H506.823V348.345H478.217ZM246.588 269.157V348.694L197.906 349.215L198.489 269.157H246.588ZM174.541 227.589V347.49L125.873 348.264L126.465 227.589H174.541Z" fill="#E1E4E5" stroke="#E1E4E5" stroke-width="4"/>
<path d="M327.095 289.212H269.646V350.673H327.095V289.212ZM251.981 289.212H194.532V350.673H251.981V289.212ZM176.061 258.344H118.339V350.699H176.061V258.344ZM395.601 279.76H343.422V350.674H395.601V279.76ZM463.965 308.915H406.564V350.673H463.965V308.915Z" fill="#FF9218"/>
<path d="M503.7 100.421C504.22 104.435 505.611 109.275 507.862 110.918C510.415 112.784 511.204 114.764 511.204 114.764L513.799 113.964L516.901 113.008C516.901 113.008 516.906 112.692 516.887 112.164C516.863 111.469 516.807 110.776 516.72 110.086C516.72 110.086 516.129 108.815 516.958 107.578C517.786 106.346 518.167 104.229 517.584 102.751C517.003 101.277 516.883 97.9381 516.334 97.9121C515.003 97.8371 515.914 102.594 515.18 103.265C514.519 103.877 513.954 103.484 513.853 103.401L513.833 103.384C510.612 100.977 508.229 91.4711 506.038 92.1751C505.221 92.4371 503.476 98.7111 503.7 100.421ZM634.657 199.207C634.657 199.207 631.907 203.966 633.139 206.711C634.367 209.458 638.63 213.119 639.73 214.555C640.825 215.989 644.544 219.778 646.043 217.34C647.54 214.908 644.896 208.439 643.062 206.001C641.23 203.558 641.057 199.366 641.057 199.366L634.657 199.207Z" fill="#F8AE9D"/>
<path d="M632.897 205.919C632.897 205.919 633.107 211.162 633.356 212.562C633.607 213.966 633.854 213.536 634.813 212.594C635.771 211.653 635.76 208.909 636.12 208.728C636.479 208.547 632.897 205.919 632.897 205.919Z" fill="#F8AE9D"/>
<path d="M584.791 99.8469C584.791 99.8469 552.711 134.426 542.724 139.844L517.563 110.144C517.563 110.144 512.84 110.476 509.883 114.458C509.883 114.458 519.645 156.347 537.456 162.148C555.267 167.95 591.579 127.164 591.579 127.164L584.791 99.8469ZM554.881 353.319H587.823C589.406 351.453 588.823 344.565 588.585 342.313C588.535 341.858 588.502 341.597 588.502 341.597C588.502 341.597 577.253 332.911 575.708 339.562C575.661 339.769 575.606 339.974 575.542 340.177C573.597 346.398 564.863 349.225 559.824 350.014C556.542 350.524 555.33 352.169 554.881 353.319Z" fill="#694823"/>
<path d="M577.059 353.319H610.002C611.584 351.453 611.001 344.565 610.764 342.313C610.714 341.858 610.681 341.597 610.681 341.597C610.681 341.597 599.432 332.911 597.887 339.562C597.84 339.769 597.785 339.974 597.72 340.177C595.775 346.398 587.042 349.225 582.003 350.014C578.721 350.524 577.509 352.169 577.059 353.319Z" fill="#694823"/>
<path d="M563.879 205.201C563.879 205.201 565.454 222.247 567.306 242.734C569.821 270.566 572.848 304.755 573.148 311.231C573.666 322.477 575.74 340.466 575.74 340.466C575.74 340.466 580.664 344.74 590.52 342.938C590.52 342.938 599.304 317.257 601.812 290.084L601.928 288.742C604.263 261.082 607.889 202.835 607.889 202.835L563.879 205.201Z" fill="#FF9218"/>
<path d="M572.813 206.367C572.813 206.367 575.784 223.244 579.311 243.53C584.105 271.089 589.928 304.945 590.753 311.375C592.183 322.54 595.737 340.325 595.737 340.325C595.737 340.325 601.093 344.29 610.982 341.914C610.982 341.914 617.866 315.831 618.24 288.632L618.249 287.289C618.408 259.616 617.428 201.417 617.428 201.417L572.813 206.367Z" fill="#FF9218"/>
<path d="M577.916 106.074C589.236 109.648 607.916 99.5709 607.916 99.5709C607.916 99.5709 598.388 92.1669 598.932 75.8779L590.18 82.9329L584.234 87.7229C584.234 87.7229 584.258 90.5489 584.908 95.4989C585.081 96.7999 585.394 98.8339 584.419 99.8769C580.628 103.922 577.916 106.074 577.916 106.074Z" fill="#F8AE9D"/>
<path d="M580.773 87.4571C580.773 87.4571 599.473 90.5651 601.229 78.8891C602.985 67.2131 606.579 59.7501 594.715 57.2731C582.851 54.7961 579.852 58.9001 578.32 62.6551C576.787 66.4091 575.956 86.3481 580.773 87.4571Z" fill="#F8AE9D"/>
<path d="M562.113 211.242C562.454 211.524 562.85 211.696 563.304 211.696C567.557 211.638 579.954 214.001 590.443 212.923C599.285 212.073 607.116 209.454 615.519 205.688C616.637 205.186 619.204 203.814 619.149 202.568C619.11 201.2 618.976 199.221 618.804 196.724C618.208 188.046 617.174 173.125 618.185 155.907C618.365 152.701 618.463 149.522 618.475 146.39C618.561 123.054 613.936 102.531 604.635 95.586C603.839 95.018 598.964 97.401 594.484 99.607C590.345 101.65 587.099 101.865 583.188 101.073L578.386 104.538C573.624 108.959 568.407 114.972 566.138 124.096C564.21 131.865 563.077 145.869 562.454 160.383C562.172 166.96 561.944 173.595 561.885 179.886V180.109C561.831 180.733 561.831 181.415 561.831 182.038C561.603 198.202 561.831 211.014 562.113 211.242Z" fill="#694823"/>
<path d="M637.46 201.63C633.91 202.112 630.123 201.615 630.123 201.615C630.123 201.615 621.564 168.824 620.392 165.808C619.219 162.792 591.626 126.279 591.626 126.279L605.744 96.123C605.744 96.123 634.675 151.468 637.492 159.173C642.147 171.903 642.403 199.859 642.403 199.859C642.403 199.859 640.249 201.254 637.46 201.63ZM603.332 74.706C602.315 76.811 599.362 77.122 599.634 74.8C599.943 72.159 599.94 68.702 597.792 69.344C595.644 69.987 595.534 71.708 594.652 70.704C593.77 69.701 593.755 65.468 587.358 65.17C580.961 64.876 578.363 67.102 575.392 65.793C573.611 65.01 572.84 63.083 572.508 61.663C572.414 61.26 572.707 60.698 572.976 61.012C573.23 61.309 573.869 61.29 573.687 60.945C572.56 58.807 570.875 54.141 575.168 50.664C580.914 46.012 586.77 49.057 590.094 49.257C597.419 49.7 602.15 50.139 604.541 54.952C606.523 58.945 606.183 68.809 603.332 74.706Z" fill="#694823"/>
<path d="M345.429 82H345.567C346.385 92.975 355 93.143 355 93.143C355 93.143 345.5 93.319 345.5 106C345.5 93.319 336 93.143 336 93.143C336 93.143 344.612 92.975 345.429 82ZM252.955 123H253.042C253.559 130.774 259 130.893 259 130.893C259 130.893 253 131.018 253 140C253 131.018 247 130.893 247 130.893C247 130.893 252.439 130.774 252.955 123ZM229.925 209H230.071C230.931 220.432 240 220.608 240 220.608C240 220.608 230 220.791 230 234C230 220.791 220 220.608 220 220.608C220 220.608 229.065 220.432 229.925 209ZM90.925 228H91.071C91.931 239.432 101 239.608 101 239.608C101 239.608 91 239.791 91 253C91 239.791 81 239.608 81 239.608C81 239.608 90.065 239.432 90.925 228ZM176.429 127H176.567C177.385 138.889 186 139.072 186 139.072C186 139.072 176.5 139.262 176.5 153C176.5 139.262 167 139.072 167 139.072C167 139.072 175.612 138.889 176.429 127ZM492.925 26H493.071C493.931 37.432 503 37.608 503 37.608C503 37.608 493 37.791 493 51C493 37.791 483 37.608 483 37.608C483 37.608 492.065 37.432 492.925 26Z" fill="#E1E4E5"/>
<path d="M77.5695 334.993L99.0762 313.487C99.8592 312.704 99.8591 311.434 99.0761 310.651L99.0754 310.651C98.2924 309.868 97.023 309.868 96.24 310.651L74.7333 332.157C73.9503 332.94 73.9503 334.21 74.7333 334.993L74.734 334.993C75.517 335.776 76.7865 335.776 77.5695 334.993Z" fill="#E1E4E5"/>
<path d="M79.6745 319.596L85.8773 313.393C86.6603 312.61 86.6603 311.34 85.8773 310.557L85.8766 310.557C85.0936 309.774 83.8241 309.774 83.0411 310.557L76.8384 316.759C76.0554 317.542 76.0554 318.812 76.8384 319.595L76.8391 319.596C77.6221 320.379 78.8915 320.379 79.6745 319.596Z" fill="#E1E4E5"/>
<defs>
<linearGradient id="paint0_linear_0_1" x1="370.139" y1="391.698" x2="370.105" y2="317.531" gradientUnits="userSpaceOnUse">
<stop stop-color="white"/>
<stop offset="1" stop-color="#EEEEEE"/>
</linearGradient>
</defs>
</svg>
