<svg width="71" height="77" viewBox="0 0 71 77" fill="none" xmlns="http://www.w3.org/2000/svg">
<path fill-rule="evenodd" clip-rule="evenodd" d="M32.5151 46.194C31.0621 46.194 29.8447 46.1411 28.7374 45.1324C27.8122 44.2901 28.2372 43.4022 26.5588 43.4022C25.9377 43.4022 24.2503 44.6761 27.0697 47.1727C31.0531 50.7004 36.4233 47.6831 36.4239 47.6831C38.7155 47.6831 41.1527 49.6988 41.6925 52.466C42.3003 55.5818 40.9038 61.6434 42.7524 61.6434C43.6367 61.6434 44.4278 61.5833 44.4278 60.3407C44.4278 54.6001 45.4143 49.6988 40.7312 46.5403C40.192 46.1766 40.1439 46.3263 39.7742 45.8219C41.1821 45.7047 42.3237 45.065 42.9387 44.1471C44.94 45.4871 44.7639 45.8219 47.406 45.8219C48.6288 45.8219 49.8906 45.0698 50.3842 44.3328C53.0389 46.1111 52.98 46.1027 55.782 45.4498C55.782 52.4684 56.1199 56.5299 55.0943 63.5617C54.341 68.7263 54.4787 68.7414 54.4787 73.7419H33.0736V66.8549C33.0736 64.6588 32.1905 64.8133 30.895 63.2635C30.488 62.7772 30.4339 62.6251 29.9583 62.1526C28.7488 60.9491 26.9621 59.3668 26.0003 58.1067C23.999 55.4838 19.6718 53.1044 19.6718 48.6137C19.6718 45.8646 20.9811 43.9847 21.9081 42.1019C23.0449 39.7946 22.7924 39.0131 24.5743 38.0669C26.8629 36.8513 26.4391 36.5285 28.1278 37.5523C28.4374 37.7398 28.5486 37.7783 28.8498 37.9472L34.505 41.226C35.5167 41.7887 36.3926 42.3345 37.3545 42.8437C36.4113 44.6268 34.5452 46.194 32.5151 46.194ZM53.9208 43.2165C52.8748 43.2165 52.059 42.4007 52.059 41.3546V35.0262C52.059 32.6317 55.782 32.3528 55.782 35.3983V40.9825C55.782 42.1842 55.0853 43.2165 53.9208 43.2165ZM47.0339 43.2165C45.4841 43.2165 44.4278 42.1596 44.4278 40.6104V34.4677C44.4278 31.1114 49.4536 30.6683 49.4536 35.0262C49.4536 37.922 50.2645 43.2165 47.0339 43.2165ZM36.796 39.1213V31.6759C36.796 28.9033 41.8218 28.162 41.8218 32.4207V40.424C41.8218 41.6222 41.2843 42.59 40.3327 42.8437C41.3132 40.801 36.796 40.2924 36.796 39.1213ZM28.9784 32.7928C28.9784 27.7154 32.7369 28.9484 33.5605 29.8862C34.5921 31.0603 34.1906 35.8468 34.1906 38.0043L28.9784 35.0262C29.3091 34.3384 28.9784 33.7276 28.9784 32.7928ZM26.373 33.7234L22.7089 36.0157C21.7771 36.5567 21.7031 36.5014 21.2186 37.5036C20.8633 38.237 20.5681 38.8183 20.2303 39.4934C18.1262 43.7016 15.659 47.4571 17.9969 52.7089C19.0935 55.173 20.8645 56.6062 22.79 58.5257L28.004 63.9212C29.0332 65.034 30.2475 66.1347 30.2956 67.0268C30.3858 68.6927 30.2818 70.7294 30.2818 72.4391C30.2812 74.3112 29.8712 76.3479 31.7709 76.3479H55.9678C57.9577 76.3479 56.7193 71.7466 57.3246 66.909C57.7034 63.8863 58.3875 60.3779 58.3875 56.9898V34.4677C58.3875 33.1914 56.5491 30.5589 54.293 30.5589C52.6554 30.5589 52.4618 30.5968 51.1284 31.4895C50.0908 29.9397 48.651 29.2562 46.4754 29.2562C45.2785 29.2562 44.9917 29.7828 44.0557 30.0004C43.1329 28.257 41.7033 26.6501 39.4021 26.6501C37.7332 26.6501 36.7497 27.4226 35.6796 28.1392C33.5136 26.6892 33.9164 26.4644 31.026 26.4644C29.3482 26.4644 27.9883 27.624 27.2693 28.664C26.3147 30.0455 26.373 31.4612 26.373 33.7234Z" fill="white"/>
<path fill-rule="evenodd" clip-rule="evenodd" d="M20.9751 2.45344C20.9751 3.34016 21.4206 4.42647 21.6442 5.32041C21.8943 6.31954 22.1095 7.10827 22.3981 8.1032L25.4803 19.3528C26.299 22.3569 26.3153 24.2307 28.0478 24.2307C28.4963 24.2307 29.1648 23.5622 29.1648 23.1143C29.1648 22.4825 28.6851 20.9375 28.4861 20.2564L23.889 3.44777C22.7744 -0.492871 20.9751 2.12761 20.9751 2.45344Z" fill="white"/>
<path fill-rule="evenodd" clip-rule="evenodd" d="M21.5336 30.5593C22.3824 30.5593 22.8363 29.7279 22.8363 29.2566C22.8363 28.6789 19.9736 25.1025 19.4427 24.4599C18.2362 23.0002 10.1956 12.0644 9.37802 11.6105C8.81172 11.2961 8.29773 11.4104 7.85406 11.8546C6.71966 12.9884 8.61454 14.7721 10.2046 16.7601L20.1431 29.7165C20.5158 30.2287 20.7359 30.5593 21.5336 30.5593Z" fill="white"/>
<path fill-rule="evenodd" clip-rule="evenodd" d="M35.4933 21.9973C35.4933 22.9616 38.0603 23.998 38.1023 20.8833L38.6584 13.0634C38.739 11.5021 38.65 10.2295 38.8712 8.25042L39.3041 1.96402C39.6311 -0.48513 36.8591 -0.661873 36.6235 1.53599C36.5237 2.4708 36.499 3.7056 36.4341 4.51056L35.572 18.9115C35.4241 19.8872 35.4933 20.9783 35.4933 21.9973Z" fill="white"/>
<path fill-rule="evenodd" clip-rule="evenodd" d="M45.5448 24.2308C46.9148 24.2308 47.5839 22.0798 48.3901 20.1898L55.0372 5.61751C55.0372 4.82096 54.4637 4.12842 53.7345 4.12842C52.448 4.12842 51.5144 7.25087 50.7593 8.78445L49.5179 11.4524C49.2858 11.934 49.0893 12.2616 48.8975 12.6932C48.669 13.2066 48.5518 13.5721 48.2765 14.1198L44.6076 21.9999C43.9018 23.4926 44.7945 24.2308 45.5448 24.2308Z" fill="white"/>
<path fill-rule="evenodd" clip-rule="evenodd" d="M53.176 25.5337C53.176 26.1644 53.8481 26.8365 54.4787 26.8365C55.5843 26.8365 60.2162 21.75 61.2262 20.7406C62.2518 19.7151 67.322 15.0969 67.322 13.9932C67.322 13.3625 66.6499 12.6904 66.0193 12.6904C64.9137 12.6904 60.2818 17.7763 59.2718 18.7863C58.2462 19.8118 53.176 24.4294 53.176 25.5337Z" fill="white"/>
<path fill-rule="evenodd" clip-rule="evenodd" d="M16.3215 36.8877C18.0444 36.8877 17.8154 35.3421 17.433 34.8599C17.0621 34.391 16.0023 33.7051 15.4275 33.3143L4.96846 25.7186C3.48899 24.6792 3.47576 24.2307 2.17544 24.2307C1.36687 24.2307 0.751881 25.4529 1.39453 26.3047L15.0398 36.3081C15.4354 36.6171 15.6356 36.8877 16.3215 36.8877Z" fill="white"/>
<path fill-rule="evenodd" clip-rule="evenodd" d="M66.2057 5.98926C64.6733 5.98926 64.196 3.38381 66.2057 3.38381C68.0579 3.38381 67.7615 5.98926 66.2057 5.98926ZM62.1105 4.50017C62.1105 5.60932 62.7339 6.77979 63.3315 7.37435L63.7246 7.72543C64.0547 7.98934 63.9994 7.96289 64.398 8.16909C66.8796 9.45198 70.1138 7.77472 70.1138 4.50017C70.1138 0.456729 64.3763 -0.88327 62.5674 2.91009C62.4598 3.13553 62.1105 4.31742 62.1105 4.50017Z" fill="white"/>
<path fill-rule="evenodd" clip-rule="evenodd" d="M64.1581 43.0305C64.1581 43.8505 64.8344 44.234 65.2745 44.8917C64.8338 45.55 64.1581 45.7598 64.1581 46.7529C64.1581 48.1915 65.7638 48.8023 67.1363 46.7529C68.0915 47.3931 68.1552 48.0562 69.3696 48.0562C69.8469 48.0562 70.4866 47.5392 70.4866 46.5671C70.4866 46.0104 69.4778 45.1448 69.1832 44.7059C71.208 43.3497 70.6477 41.7277 69.1832 41.7277C68.148 41.7277 67.8468 42.5543 67.1363 43.0305C66.0656 41.0075 64.1581 41.5233 64.1581 43.0305Z" fill="white"/>
<path fill-rule="evenodd" clip-rule="evenodd" d="M0.5 53.8262C0.5 54.8367 1.635 55.6122 2.22174 56.1996C2.78263 56.7599 3.6471 57.9213 4.59514 57.9213C5.32436 57.9213 5.83956 57.2246 5.85218 56.5951C5.87082 55.6988 2.43696 52.5234 1.80333 52.5234C1.1721 52.5234 0.5 53.1955 0.5 53.8262Z" fill="white"/>
<path fill-rule="evenodd" clip-rule="evenodd" d="M6.82909 56.618C6.82909 57.4675 7.6599 57.9213 8.13181 57.9213C8.85983 57.9213 9.76278 56.7557 10.2257 56.2922C10.8226 55.6952 12.8522 54.3149 11.7653 52.9846C10.6279 51.5917 9.04919 53.7462 8.55083 54.2446C7.96349 54.8319 6.82909 55.6074 6.82909 56.618Z" fill="white"/>
<path fill-rule="evenodd" clip-rule="evenodd" d="M11.11 64.4356C12.1704 64.4356 12.4127 63.8537 12.4127 62.9465C12.4127 62.3838 11.095 61.3492 10.691 60.9459C9.36961 59.6245 9.47181 59.2241 8.13181 59.2241C7.95266 59.2241 5.85038 59.874 8.17629 62.1572C8.83818 62.8071 10.0471 64.4356 11.11 64.4356Z" fill="white"/>
<path fill-rule="evenodd" clip-rule="evenodd" d="M0.5 62.7603C0.5 63.8334 1.39995 64.3823 2.20671 64.1076C2.85056 63.8881 3.51124 63.0068 3.99037 62.5277C4.35949 62.158 5.42596 61.1889 5.63937 60.8084C6.12571 59.9391 5.55581 58.8516 4.59514 58.8516C3.47758 58.8516 0.5 62.1315 0.5 62.7603Z" fill="white"/>
</svg>
