<svg width="322" height="268" viewBox="0 0 322 268" fill="none" xmlns="http://www.w3.org/2000/svg">
<path d="M213.312 218.547C273.038 218.547 321.455 169.733 321.455 109.517C321.455 49.3017 273.038 0.487305 213.312 0.487305C153.587 0.487305 105.169 49.3017 105.169 109.517C105.169 169.733 153.587 218.547 213.312 218.547Z" fill="url(#paint0_linear_0_1)"/>
<path d="M250.874 92.7744C250.874 41.6906 209.79 0.257568 159.136 0.257568C108.481 0.257568 67.1893 42.0057 67.3968 93.0894C67.5008 118.474 77.6944 141.445 94.1278 158.124C106.921 171.131 116.387 187.075 121.067 204.802L128.452 232.389H188.571L195.539 206.27C200.428 188.229 210.101 171.865 223.311 158.753C240.369 141.865 250.874 118.578 250.874 92.7744Z" fill="#FF9218"/>
<path d="M158.723 265.531C142.258 265.531 128.872 252.025 128.872 235.43V229.56H188.575V235.43C188.575 252.127 175.192 265.531 158.723 265.531Z" fill="white" stroke="#E1E4E5" stroke-width="4.59"/>
<path d="M190.232 242.774H127.097C125.745 242.774 124.704 241.724 124.704 240.361C124.704 238.997 125.745 237.948 127.097 237.948H190.232C191.584 237.948 192.624 238.997 192.624 240.361C192.624 241.619 191.48 242.774 190.232 242.774ZM190.649 253.054H127.513C126.161 253.054 125.122 252.005 125.122 250.641C125.122 249.277 126.161 248.228 127.513 248.228H190.649C192.001 248.228 193.041 249.277 193.041 250.641C193.041 251.899 192.001 253.054 190.649 253.054Z" fill="#E1E4E5"/>
<path d="M121.64 107.159C119.82 107.159 118.154 107.604 116.678 108.483C114.775 109.624 113.175 111.905 112.187 114.895C111.206 117.866 110.871 121.421 111.398 124.937C113.261 137.334 123.485 150.705 146.791 154.535C145.362 140.543 142.99 128.009 139.194 120.542L121.64 107.159ZM121.64 107.159C122.777 107.159 123.966 107.327 125.208 107.673L121.64 107.159ZM121.64 107.159L125.208 107.673L121.64 107.159ZM125.208 107.673C130.591 109.233 135.86 113.987 139.194 120.542L125.208 107.673ZM169.15 226.274L169.2 227.341H173.297L173.252 226.177L173.25 226.123C173.183 224.456 171.748 188.951 174.452 158.445C200.037 154.585 211.786 139.77 213.913 125.519C214.542 121.3 214.141 117.079 212.916 113.501C211.696 109.937 209.625 106.918 206.838 105.243C203.507 103.232 199.521 102.859 195.369 104.059C188.866 105.931 182.821 111.508 179.075 118.839L179.075 118.84C174.86 127.117 172.388 140.606 170.943 155.1C167.785 155.457 164.416 155.645 160.804 155.645C157.192 155.645 153.823 155.457 150.666 155.1C149.22 140.587 146.747 127.117 142.533 118.84L142.533 118.839C138.787 111.508 132.742 105.931 126.24 104.059C122.088 102.859 118.103 103.232 114.772 105.242C111.974 106.917 109.902 109.936 108.684 113.502C107.462 117.081 107.066 121.301 107.695 125.519V125.519C109.822 139.75 121.571 154.564 147.156 158.444C149.859 188.949 148.425 224.453 148.358 226.122L148.355 226.177L148.311 227.341H152.408L152.457 226.274C152.559 224.088 153.695 189.376 151.039 158.904C154.111 159.21 157.383 159.383 160.824 159.383C164.261 159.383 167.532 159.226 170.609 158.91C167.954 189.38 169.048 224.107 169.15 226.274ZM174.837 154.556C176.266 140.562 178.639 128.011 182.434 120.565C185.792 114.001 191.044 109.23 196.422 107.692L196.43 107.69C197.665 107.328 198.85 107.159 199.989 107.159C201.809 107.159 203.471 107.605 204.944 108.5L204.949 108.503C206.853 109.644 208.453 111.925 209.441 114.916C210.423 117.887 210.758 121.441 210.231 124.957C208.368 137.334 198.142 150.724 174.837 154.556Z" fill="white"/>
<path d="M121.64 107.159C119.82 107.159 118.154 107.604 116.678 108.483C114.775 109.624 113.175 111.905 112.187 114.895C111.206 117.866 110.871 121.421 111.398 124.937C113.261 137.334 123.485 150.705 146.791 154.535C145.362 140.543 142.99 128.009 139.194 120.542M121.64 107.159L139.194 120.542M121.64 107.159C122.777 107.159 123.966 107.327 125.208 107.673M121.64 107.159L125.208 107.673M139.194 120.542C135.86 113.987 130.591 109.233 125.208 107.673M139.194 120.542L125.208 107.673M169.15 226.274L169.2 227.341H173.297L173.252 226.177L173.25 226.123C173.183 224.456 171.748 188.951 174.452 158.445C200.037 154.585 211.786 139.77 213.913 125.519C214.542 121.3 214.141 117.079 212.916 113.501C211.696 109.937 209.625 106.918 206.838 105.243C203.507 103.232 199.521 102.859 195.369 104.059C188.866 105.931 182.821 111.508 179.075 118.839L179.075 118.84C174.86 127.117 172.388 140.606 170.943 155.1C167.785 155.457 164.416 155.645 160.804 155.645C157.192 155.645 153.823 155.457 150.666 155.1C149.22 140.587 146.747 127.117 142.533 118.84L142.533 118.839C138.787 111.508 132.742 105.931 126.24 104.059C122.088 102.859 118.103 103.232 114.772 105.242C111.974 106.917 109.902 109.936 108.684 113.502C107.462 117.081 107.066 121.301 107.695 125.519V125.519C109.822 139.75 121.571 154.564 147.156 158.444C149.859 188.949 148.425 224.453 148.358 226.122L148.355 226.177L148.311 227.341H152.408L152.457 226.274C152.559 224.088 153.695 189.376 151.039 158.904C154.111 159.21 157.383 159.383 160.824 159.383C164.261 159.383 167.532 159.226 170.609 158.91C167.954 189.38 169.048 224.107 169.15 226.274ZM174.837 154.556C176.266 140.562 178.639 128.011 182.434 120.565C185.792 114.001 191.044 109.23 196.422 107.692L196.43 107.69C197.665 107.328 198.85 107.159 199.989 107.159C201.809 107.159 203.471 107.605 204.944 108.5L204.949 108.503C206.853 109.644 208.453 111.925 209.441 114.916C210.423 117.887 210.758 121.441 210.231 124.957C208.368 137.334 198.142 150.724 174.837 154.556Z" stroke="white" stroke-width="3.489"/>
<path d="M231.42 88.5586C229 88.5586 227.046 86.5617 227.046 84.0881C227.046 56.386 208.727 32.3113 182.503 25.5142C180.173 24.9097 178.739 22.4727 179.348 20.0908C179.94 17.691 182.324 16.2434 184.654 16.8664C214.767 24.6531 235.793 52.3005 235.793 84.0881C235.793 86.5617 233.839 88.5586 231.42 88.5586ZM170.852 23.5718C173.268 23.5718 175.226 21.5698 175.226 19.1014C175.226 16.6322 173.268 14.6309 170.852 14.6309C168.436 14.6309 166.479 16.6322 166.479 19.1014C166.479 21.5698 168.436 23.5718 170.852 23.5718Z" fill="white"/>
<path d="M26.9526 144.944H68.4415C69.1928 144.944 69.8018 145.56 69.8018 146.319C69.8018 147.079 69.1928 147.695 68.4415 147.695H26.9526C26.2014 147.695 25.5924 147.079 25.5924 146.319C25.5924 145.56 26.2014 144.944 26.9526 144.944Z" fill="#E1E4E5"/>
<path d="M11.3095 98.1667H52.1183C52.8695 98.1667 53.4785 98.7827 53.4785 99.5425C53.4785 100.302 52.8695 100.918 52.1183 100.918H11.3095C10.5583 100.918 9.94928 100.302 9.94928 99.5425C9.94928 98.7827 10.5583 98.1667 11.3095 98.1667Z" fill="#E1E4E5"/>
<path d="M46.6773 171.083H88.1661C88.9174 171.083 89.5264 170.467 89.5264 169.708C89.5264 168.948 88.9174 168.332 88.1661 168.332H46.6773C45.926 168.332 45.317 168.948 45.317 169.708C45.317 170.467 45.926 171.083 46.6773 171.083Z" fill="#E1E4E5"/>
<path d="M29.6731 74.7788H53.4781C54.2294 74.7788 54.8384 75.3947 54.8384 76.1545C54.8384 76.9143 54.2294 77.5303 53.4781 77.5303H29.6731C28.9219 77.5303 28.3129 76.9143 28.3129 76.1545C28.3129 75.3947 28.9219 74.7788 29.6731 74.7788Z" fill="#E1E4E5"/>
<path d="M78.6433 194.471H101.768C102.519 194.471 103.128 193.855 103.128 193.096C103.128 192.336 102.519 191.72 101.768 191.72H78.6433C77.8921 191.72 77.2831 192.336 77.2831 193.096C77.2831 193.855 77.8921 194.471 78.6433 194.471Z" fill="#E1E4E5"/>
<path d="M37.8347 51.3906H60.9596C61.7108 51.3906 62.3198 52.0066 62.3198 52.7664C62.3198 53.5262 61.7108 54.1421 60.9596 54.1421H37.8347C37.0835 54.1421 36.4745 53.5262 36.4745 52.7664C36.4745 52.0066 37.0835 51.3906 37.8347 51.3906Z" fill="#E1E4E5"/>
<path d="M53.4783 28.0024H76.6031C77.3544 28.0024 77.9634 28.6184 77.9634 29.3782C77.9634 30.138 77.3544 30.7539 76.6031 30.7539H53.4783C52.727 30.7539 52.118 30.138 52.118 29.3782C52.118 28.6184 52.727 28.0024 53.4783 28.0024Z" fill="#E1E4E5"/>
<path d="M86.8054 4.6145H109.93C110.682 4.6145 111.291 5.23044 111.291 5.99024C111.291 6.75003 110.682 7.36597 109.93 7.36597H86.8054C86.0542 7.36597 85.4452 6.75003 85.4452 5.99024C85.4452 5.23044 86.0542 4.6145 86.8054 4.6145Z" fill="#E1E4E5"/>
<path d="M1.78703 121.555H56.879C57.6303 121.555 58.2393 122.171 58.2393 122.931C58.2393 123.69 57.6303 124.306 56.879 124.306H1.78703C1.03579 124.306 0.426777 123.69 0.426777 122.931C0.426777 122.171 1.03579 121.555 1.78703 121.555Z" fill="#E1E4E5"/>
<defs>
<linearGradient id="paint0_linear_0_1" x1="217.924" y1="340.805" x2="211.145" y2="-236.725" gradientUnits="userSpaceOnUse">
<stop stop-color="white"/>
<stop offset="1" stop-color="#EEEEEE"/>
</linearGradient>
</defs>
</svg>
