<svg width="472" height="305" viewBox="0 0 472 305" fill="none" xmlns="http://www.w3.org/2000/svg">
<path d="M450.906 203.103H411.08C401.321 203.103 393.145 196.594 393.145 188.348C393.145 184.225 395.255 180.537 398.419 177.933C401.584 175.329 406.068 173.593 411.08 173.593H416.882C421.894 173.593 426.378 171.858 429.542 169.253C432.708 166.65 434.817 162.961 434.817 158.838C434.817 150.81 426.905 144.083 416.882 144.083H295.237C292.059 144.083 290.016 140.254 290.016 137.139C290.016 129.328 282.368 123.035 272.873 123.035H227.604C226.459 123.035 225.361 122.59 224.551 121.796C223.742 121.003 223.287 119.926 223.287 118.804C223.287 117.682 223.742 116.606 224.551 115.812C225.361 115.019 226.459 114.573 227.604 114.573H401.057C408.706 114.573 415.827 111.969 420.839 107.846C425.85 103.724 429.015 97.8647 429.015 91.5725C429.015 78.7702 416.355 68.5715 401.057 68.5715H311.471C297.414 68.5715 283.501 57.9394 269.444 57.9394H219.427C212.09 57.9394 206.143 52.1103 206.143 44.92C206.143 37.7297 212.09 31.9011 219.427 31.9011H331.426C336.701 31.9011 341.712 30.1649 345.141 27.3441C348.57 24.5233 350.68 20.6179 350.68 16.0609C350.68 7.38149 341.976 0.220703 331.426 0.220703H73.211C67.9356 0.220703 62.9245 1.95692 59.4958 4.77772C56.0666 7.59852 53.9571 11.5045 53.9571 16.0609C53.9571 24.7403 62.6607 31.9011 73.211 31.9011H79.8045C88.5087 31.9011 95.8936 37.7598 95.8936 45.137C95.8936 48.8259 94.0474 52.0808 91.1464 54.4675C88.2448 56.8543 84.2885 58.3735 79.8045 58.3735H47.8907C42.3514 58.3735 37.0765 60.3262 33.384 63.364C29.6916 66.4018 27.3176 70.5248 27.3176 75.2983C27.3176 84.6288 36.5489 92.0061 47.6269 92.0061H80.0684C90.6187 92.0061 99.3223 99.1668 99.3223 107.846C99.3223 112.186 97.2128 116.092 93.7836 118.912C90.3549 121.733 85.6071 123.469 80.3322 123.469H51.3194C46.5716 123.469 42.3514 124.988 39.1866 127.592C36.0218 130.196 34.1755 133.668 34.1755 137.573C34.1755 145.385 41.8243 151.677 51.3194 151.677H74.7935C88.2448 151.677 99.059 160.574 99.059 171.641C99.059 177.065 96.4213 182.273 91.9373 185.745C87.4533 189.434 81.3875 191.603 74.7935 191.603H42.0882C35.4941 191.603 29.4277 193.773 25.2076 197.462C20.7242 200.934 18.0864 205.924 18.0864 211.349C18.0864 222.199 28.9001 231.095 42.0882 231.095H143.077C154.23 231.095 165.186 237.17 176.339 237.17H194.731C201.762 237.17 207.461 242.757 207.461 249.647C207.461 256.538 201.762 262.124 194.731 262.124H149.964C144.161 262.124 139.149 264.077 135.457 267.114C131.764 270.152 129.39 274.492 129.39 279.049C129.39 288.379 138.622 295.974 149.964 295.974H424.267C430.07 295.974 435.081 294.021 438.774 290.983C442.467 287.945 444.84 283.606 444.84 279.049C444.84 269.718 435.609 262.124 424.267 262.124H416.091C407.651 262.124 401.057 256.482 401.057 249.755C401.057 246.284 402.64 243.246 405.541 241.076C408.178 238.906 412.135 237.387 416.355 237.387H450.906C456.709 237.387 461.721 235.434 465.413 232.397C469.105 229.359 471.479 225.019 471.479 220.462C471.479 210.698 462.248 203.103 450.906 203.103Z" fill="url(#paint0_linear_0_1)"/>
<path d="M462.937 175.118C456.221 178.384 447.306 174.185 447.306 174.185C447.306 174.185 449.287 164.694 456.007 161.433C462.724 158.167 471.635 162.361 471.635 162.361C471.635 162.361 469.654 171.853 462.937 175.118Z" fill="url(#paint1_linear_0_1)"/>
<path d="M12.007 176.427C21.8149 182.188 35.8865 176.862 35.8865 176.862C35.8865 176.862 34.0464 162.197 24.2323 156.443C14.4244 150.681 0.358887 156 0.358887 156C0.358887 156 2.199 170.665 12.007 176.427Z" fill="url(#paint2_linear_0_1)"/>
<path d="M458.478 78.4547C455.958 78.4547 453.916 80.4563 453.916 82.9254C453.916 85.3944 455.958 87.396 458.478 87.396C460.997 87.396 463.039 85.3944 463.039 82.9254C463.039 80.4563 460.997 78.4547 458.478 78.4547Z" fill="#FF9218"/>
<path d="M323.157 256.964C318.419 256.964 314.579 260.728 314.579 265.372C314.579 270.015 318.419 273.779 323.157 273.779C327.895 273.779 331.736 270.015 331.736 265.372C331.736 260.728 327.895 256.964 323.157 256.964Z" fill="#FF9218"/>
<path d="M80.9557 263.896C77.1947 263.896 74.1458 260.907 74.1458 257.221C74.1458 253.535 77.1947 250.547 80.9557 250.547C84.7167 250.547 87.7656 253.535 87.7656 257.221C87.7656 260.907 84.7167 263.896 80.9557 263.896Z" fill="#FF9218"/>
<path d="M438.731 134.301C436.213 134.301 434.171 132.301 434.171 129.833C434.171 127.365 436.213 125.364 438.731 125.364C441.249 125.364 443.29 127.365 443.29 129.833C443.29 132.301 441.249 134.301 438.731 134.301Z" fill="#FF9218"/>
<path d="M41.2463 269.091C36.5701 269.091 32.7792 265.375 32.7792 260.792C32.7792 256.209 36.5701 252.494 41.2463 252.494C45.9225 252.494 49.7134 256.209 49.7134 260.792C49.7134 265.375 45.9225 269.091 41.2463 269.091Z" fill="#E1E4E5"/>
<path d="M465.271 270.596C461.712 270.596 458.826 267.768 458.826 264.28C458.826 260.791 461.712 257.964 465.271 257.964C468.83 257.964 471.715 260.791 471.715 264.28C471.715 267.768 468.83 270.596 465.271 270.596Z" fill="#E1E4E5"/>
<path d="M394.468 43.8786C389.994 43.8786 386.367 40.3241 386.367 35.9394C386.367 31.5546 389.994 28.0001 394.468 28.0001C398.942 28.0001 402.568 31.5546 402.568 35.9394C402.568 40.3241 398.942 43.8786 394.468 43.8786Z" fill="#E1E4E5"/>
<path d="M76.2895 109.494C77.2092 112.857 75.1723 116.315 71.74 117.217C68.3077 118.118 64.7797 116.122 63.8601 112.758C62.9404 109.394 64.9773 105.936 68.4096 105.035C71.8419 104.133 75.3698 106.13 76.2895 109.494Z" fill="#E1E4E5"/>
<path d="M143.166 40.901C138.439 40.901 134.607 37.1453 134.607 32.5124C134.607 27.8795 138.439 24.1238 143.166 24.1238C147.894 24.1238 151.726 27.8795 151.726 32.5124C151.726 37.1453 147.894 40.901 143.166 40.901Z" fill="#E1E4E5"/>
<path d="M427.31 193.521C423.674 193.521 420.726 191.21 420.726 188.359C420.726 185.508 423.674 183.197 427.31 183.197C430.946 183.197 433.894 185.508 433.894 188.359C433.894 191.21 430.946 193.521 427.31 193.521Z" fill="#E1E4E5"/>
<path d="M55.2249 35.771H55.3186C55.8741 43.4834 61.7263 43.602 61.7263 43.602C61.7263 43.602 55.2728 43.7255 55.2728 52.6368C55.2728 43.7255 48.8193 43.602 48.8193 43.602C48.8193 43.602 54.6693 43.4834 55.2249 35.771ZM87.0176 287.882H87.108C87.6412 295.572 93.2597 295.69 93.2597 295.69C93.2597 295.69 87.0639 295.813 87.0639 304.698C87.0639 295.813 80.8681 295.69 80.8681 295.69C80.8681 295.69 86.4844 295.572 87.0176 287.882Z" fill="#E1E4E5"/>
<path fill-rule="evenodd" clip-rule="evenodd" d="M257.098 162.395C239.024 162.395 224.371 176.756 224.371 194.471V210.508C224.371 228.223 239.024 242.583 257.098 242.583H271.292V266.623C271.291 268.14 271.73 269.625 272.556 270.908C273.383 272.19 274.563 273.216 275.961 273.867C277.358 274.518 278.916 274.767 280.452 274.585C281.988 274.404 283.44 273.799 284.64 272.841L318.04 246.185C320.958 243.855 324.608 242.583 328.372 242.583H371.643C389.718 242.583 404.37 228.222 404.37 210.508V194.47C404.37 176.755 389.718 162.395 371.643 162.395H257.098ZM117.484 10.8955C99.4096 10.8955 84.7573 25.2564 84.7573 42.9706V59.0082C84.7573 76.7229 99.4096 91.0833 117.484 91.0833H160.755C164.52 91.0834 168.169 92.3555 171.088 94.6853L204.488 121.342C205.687 122.3 207.139 122.905 208.676 123.086C210.212 123.268 211.769 123.018 213.167 122.367C214.564 121.716 215.745 120.69 216.571 119.408C217.398 118.126 217.836 116.641 217.836 115.124V91.0833H232.029C250.104 91.0833 264.756 76.7229 264.756 59.0082V42.9706C264.756 25.2564 250.104 10.8955 232.029 10.8955H117.484ZM91.0318 269.738V263.226C91.0859 244.701 106.395 229.697 125.297 229.644H171.311C190.213 229.697 205.522 244.701 205.576 263.226V269.738C205.576 274.166 201.914 277.756 197.394 277.756H99.2132C94.6947 277.756 91.0318 274.166 91.0318 269.738Z" fill="#FF9218"/>
<path d="M148.302 210.028C166.376 210.028 181.029 195.667 181.029 177.952C181.029 160.238 166.376 145.877 148.302 145.877C130.227 145.877 115.575 160.238 115.575 177.952C115.575 195.667 130.227 210.028 148.302 210.028Z" fill="#FF9218"/>
<path fill-rule="evenodd" clip-rule="evenodd" d="M283.556 129.172V122.66C283.61 104.135 298.92 89.1305 317.821 89.0775H363.835C382.737 89.1305 398.047 104.135 398.101 122.66V129.172C398.101 133.6 394.437 137.19 389.919 137.19H291.738C287.219 137.19 283.556 133.6 283.556 129.172Z" fill="#FF9218"/>
<path d="M340.826 69.4544C358.9 69.4544 373.553 55.0939 373.553 37.3793C373.553 19.6647 358.9 5.3042 340.826 5.3042C322.751 5.3042 308.099 19.6647 308.099 37.3793C308.099 55.0939 322.751 69.4544 340.826 69.4544Z" fill="#FF9218"/>
<defs>
<linearGradient id="paint0_linear_0_1" x1="254.45" y1="461.79" x2="248.501" y2="-321.569" gradientUnits="userSpaceOnUse">
<stop stop-color="white"/>
<stop offset="1" stop-color="#EEEEEE"/>
</linearGradient>
<linearGradient id="paint1_linear_0_1" x1="437.144" y1="185.305" x2="491.683" y2="141.288" gradientUnits="userSpaceOnUse">
<stop stop-color="white"/>
<stop offset="1" stop-color="#EEEEEE"/>
</linearGradient>
<linearGradient id="paint2_linear_0_1" x1="49.9615" y1="194.972" x2="-27.4845" y2="121.552" gradientUnits="userSpaceOnUse">
<stop stop-color="white"/>
<stop offset="1" stop-color="#EEEEEE"/>
</linearGradient>
</defs>
</svg>
