<svg width="306" height="242" viewBox="0 0 306 242" fill="none" xmlns="http://www.w3.org/2000/svg">
<path d="M252.999 154.429C252.999 154.429 243.927 160.635 236.256 160C228.586 159.364 223.801 151.397 221.232 148.504C218.666 145.611 212.197 138.623 214.138 135.692C216.078 132.761 217.803 135.918 218.45 137.946C219.097 139.975 218.461 135.931 219.427 136.15C220.391 136.368 220.007 138.824 220.954 139.626C221.901 140.426 235.918 148.091 238.937 147.641C241.956 147.19 243.277 146.324 244.127 145.404C244.975 144.482 254.122 152.425 252.999 154.429Z" fill="#F8AE9D"/>
<path d="M223.334 229.922L223.311 234.172L214.023 239.405V241.693H232.598V237.771L233.571 229.922H223.334Z" fill="#E1E4E5"/>
<path d="M269.927 178.081C269.927 178.081 244.284 168.918 232.441 170.409C220.777 172.889 220.688 187.597 220.732 196.25C220.775 204.903 222.148 229.927 222.148 229.927H235.186C235.186 229.927 239.851 207.421 241.408 196.804C241.408 196.804 242.048 192.052 245.479 193.855C259.526 201.241 268.35 197.913 269.953 190.924C271.555 183.935 269.927 178.081 269.927 178.081Z" fill="#694823"/>
<path d="M259.326 138.86C259.326 138.86 250.935 143.177 244.112 144.257C236.996 145.384 246.915 155.078 254.678 155.078C262.441 155.078 259.326 138.86 259.326 138.86Z" fill="#FF9218"/>
<path d="M293.952 235.144L298.929 235.168L303.572 241.707H305.894V223.396H301.914L293.952 225.055V235.144Z" fill="#E1E4E5"/>
<path d="M293.967 235.563V224.291C283.446 223.164 279.331 223.031 268.281 222.976C260.346 222.938 264.463 220.684 264.463 220.684C273.153 214.371 282.074 199.041 282.074 199.041C287.334 190.474 284.362 177.172 284.362 177.172C284.362 177.172 274.755 180.103 266.522 179.652C266.522 179.652 257.603 191.15 242.048 216.4C235.834 226.489 236.545 237.556 248.218 238.138C248.218 238.138 276.355 238.494 293.967 235.563Z" fill="#694823"/>
<path d="M262.312 137.647C262.312 137.647 254.894 139.072 253.986 149.113C253.309 156.607 253.868 166.77 253.868 170.039C253.868 173.308 252.274 173.033 254.463 174.014C256.652 174.995 268.264 184.835 284.205 177.233C284.205 177.233 286.694 162.169 285.947 153.047C285.477 147.31 284.006 137.942 274.51 137.137L262.312 137.647Z" fill="#FF9218"/>
<path d="M264.538 122.014L260.46 121.915C260.46 121.915 257.092 137.336 265.433 135.582L265.276 137.21C265.276 137.21 262.724 137.6 261.758 137.825C261.758 137.825 264.652 140.429 268.137 140.138C271.622 139.847 274.052 137.473 274.052 137.473L272.34 137.293L271.706 130.818C271.706 130.818 273.698 129.713 273.824 128.412C273.949 127.112 273.668 126.753 272.767 126.329C271.865 125.906 270.464 127.402 270.464 127.402C270.464 127.402 269.189 124.312 269.067 122.326L264.538 122.014Z" fill="#F8AE9D"/>
<path d="M225.351 130.279L287.194 183.453C288.183 184.302 288.813 185.525 288.946 186.857C289.079 188.188 288.705 189.521 287.905 190.566C287.1 191.619 285.927 192.294 284.646 192.444C283.364 192.594 282.078 192.207 281.069 191.367L218.234 138.846L225.351 130.279Z" fill="#694823"/>
<path d="M202.492 81.9205C219.703 81.9205 233.653 96.505 233.653 114.498C233.653 132.491 219.703 147.075 202.492 147.075C185.282 147.075 171.332 132.491 171.332 114.498C171.332 96.505 185.282 81.9205 202.492 81.9205ZM202.492 137.529C214.659 137.529 224.523 127.217 224.523 114.498C224.523 101.778 214.659 91.4662 202.492 91.4662C190.325 91.4662 180.462 101.778 180.462 114.498C180.462 127.217 190.325 137.529 202.492 137.529Z" fill="#E1E4E5"/>
<path d="M277.367 173.141C277.367 173.141 268.294 179.348 260.624 178.712C252.954 178.076 248.168 170.109 245.6 167.216C243.034 164.324 236.564 157.335 238.505 154.404C240.446 151.474 242.171 154.63 242.818 156.659C243.465 158.687 242.829 154.643 243.795 154.862C244.759 155.081 244.375 157.536 245.322 158.338C246.268 159.139 260.285 166.804 263.304 166.353C266.323 165.902 267.645 165.036 268.495 164.116C269.343 163.194 278.49 171.137 277.367 173.141Z" fill="#F8AE9D"/>
<path d="M285.292 148.229C285.292 148.229 285.732 162.744 282.497 168.83C279.262 174.918 279.032 175.116 276.019 171.86C273.009 168.605 267.618 165.314 268.372 162.676C269.127 160.038 270.678 155.486 271.284 151.471C271.93 147.188 273.44 138.395 276.675 137.268C276.675 137.268 284.421 140.255 285.292 148.229Z" fill="#FF9218"/>
<path d="M273.576 130.726C272.91 131.837 271.314 131.832 271.594 130.553C271.913 129.1 272.111 127.173 270.926 127.401C269.741 127.628 269.582 128.58 269.169 127.968C268.756 127.355 268.993 124.995 265.591 124.44C262.189 123.887 260.671 124.97 259.159 124.06C258.253 123.515 257.953 122.394 257.857 121.582C257.83 121.352 258.019 121.055 258.144 121.247C258.263 121.428 258.605 121.456 258.528 121.252C258.05 119.992 257.422 117.29 259.917 115.615C263.258 113.371 266.212 115.424 267.976 115.737C271.866 116.43 274.369 116.962 275.368 119.79C276.196 122.136 275.442 127.613 273.576 130.726Z" fill="#694823"/>
<path d="M28.4335 136.173H28.433C14.9018 136.173 3.93262 147.641 3.93262 161.787V161.788C3.93262 175.934 14.9018 187.402 28.433 187.402H28.4335C41.9647 187.402 52.9339 175.934 52.9339 161.788V161.787C52.9339 147.641 41.9647 136.173 28.4335 136.173Z" fill="#FF9218"/>
<path fill-rule="evenodd" clip-rule="evenodd" d="M39.5689 172.532V174.245C39.5689 175.19 38.8446 175.958 37.9525 175.958H18.5515C17.6594 175.958 16.9351 175.19 16.9351 174.245V172.505C16.9351 167.322 22.5258 163.955 28.252 163.955C33.9782 163.955 39.5689 167.324 39.5689 172.505M32.3099 148.908C34.5516 151.252 34.5516 155.052 32.3099 157.396C30.0677 159.739 26.4333 159.739 24.1915 157.396C21.9498 155.052 21.9498 151.252 24.1915 148.908C26.4333 146.565 30.0677 146.565 32.3099 148.908Z" fill="white"/>
<path d="M145.613 148.424H145.612C132.081 148.424 121.112 159.891 121.112 174.038V174.038C121.112 188.185 132.081 199.652 145.612 199.652H145.613C159.144 199.652 170.113 188.185 170.113 174.038V174.038C170.113 159.891 159.144 148.424 145.613 148.424Z" fill="#FF9218"/>
<path fill-rule="evenodd" clip-rule="evenodd" d="M156.748 184.783V186.495C156.748 187.441 156.023 188.208 155.131 188.208H135.73C134.838 188.208 134.114 187.441 134.114 186.495V184.755C134.114 179.573 139.704 176.205 145.431 176.205C151.157 176.205 156.748 179.574 156.748 184.755M149.489 161.159C151.73 163.502 151.73 167.302 149.489 169.646C147.247 171.99 143.612 171.99 141.37 169.646C139.129 167.302 139.129 163.502 141.37 161.159C143.612 158.815 147.247 158.815 149.489 161.159Z" fill="white"/>
<path d="M96.5092 84.8373H96.5087C82.9775 84.8373 72.0083 96.3051 72.0083 110.451V110.452C72.0083 124.598 82.9775 136.066 96.5087 136.066H96.5092C110.04 136.066 121.01 124.598 121.01 110.452V110.451C121.01 96.3051 110.04 84.8373 96.5092 84.8373Z" fill="#FF9218"/>
<path fill-rule="evenodd" clip-rule="evenodd" d="M107.645 121.196V122.91C107.645 123.855 106.92 124.622 106.028 124.622H86.6273C85.7346 124.622 85.0103 123.855 85.0103 122.91V121.169C85.0103 115.987 90.601 112.619 96.3277 112.619C102.054 112.619 107.645 115.988 107.645 121.169M100.385 97.5724C102.627 99.916 102.627 103.716 100.385 106.06C98.1434 108.403 94.5085 108.403 92.2667 106.06C90.025 103.716 90.025 99.916 92.2667 97.5724C94.5085 95.2288 98.1434 95.2288 100.385 97.5724Z" fill="white"/>
<path d="M24.5277 51.5854H24.5272C10.996 51.5854 0.0268555 63.0532 0.0268555 77.1995V77.2C0.0268555 91.3462 10.996 102.814 24.5272 102.814H24.5277C38.0589 102.814 49.0281 91.3462 49.0281 77.2V77.1995C49.0281 63.0532 38.0589 51.5854 24.5277 51.5854Z" fill="#FF9218"/>
<path fill-rule="evenodd" clip-rule="evenodd" d="M35.6627 87.9451V89.6576C35.6627 90.6033 34.9384 91.3707 34.0462 91.3707H14.6453C13.7531 91.3707 13.0288 90.6033 13.0288 89.6576V87.9178C13.0288 82.7346 18.6195 79.3676 24.3458 79.3676C30.072 79.3676 35.6627 82.7368 35.6627 87.9178M28.4037 64.3211C30.6454 66.6647 30.6454 70.4648 28.4037 72.8085C26.1614 75.1521 22.527 75.1521 20.2853 72.8085C18.043 70.4648 18.043 66.6647 20.2853 64.3211C22.527 61.9774 26.1614 61.9774 28.4037 64.3211Z" fill="white"/>
<path d="M90.9291 0.25H90.9286C77.3974 0.25 66.4282 11.7178 66.4282 25.864V25.8646C66.4282 40.0108 77.3974 51.4786 90.9286 51.4786H90.9291C104.46 51.4786 115.429 40.0108 115.429 25.8646V25.864C115.429 11.7178 104.46 0.25 90.9291 0.25Z" fill="#FF9218"/>
<path fill-rule="evenodd" clip-rule="evenodd" d="M102.065 36.6092V38.3222C102.065 39.2673 101.34 40.0347 100.448 40.0347H81.0472C80.1545 40.0347 79.4302 39.2673 79.4302 38.3222V36.5818C79.4302 31.3992 85.0209 28.0317 90.7476 28.0317C96.4739 28.0317 102.065 31.4009 102.065 36.5818M94.805 12.9851C97.0467 15.3288 97.0467 19.1289 94.805 21.4725C92.5633 23.8161 88.9289 23.8161 86.6866 21.4725C84.4449 19.1289 84.4449 15.3288 86.6866 12.9851C88.9289 10.6415 92.5633 10.6415 94.805 12.9851Z" fill="white"/>
<path d="M156.215 28.8345H156.214C142.683 28.8345 131.714 40.3023 131.714 54.4485V54.449C131.714 68.5953 142.683 80.0631 156.214 80.0631H156.215C169.746 80.0631 180.715 68.5953 180.715 54.449V54.4485C180.715 40.3023 169.746 28.8345 156.215 28.8345Z" fill="#FF9218"/>
<path fill-rule="evenodd" clip-rule="evenodd" d="M167.35 65.1942V66.9067C167.35 67.8523 166.626 68.6192 165.733 68.6192H146.333C145.44 68.6192 144.716 67.8523 144.716 66.9067V65.1668C144.716 59.9837 150.307 56.6167 156.033 56.6167C161.76 56.6167 167.35 59.9853 167.35 65.1668M160.091 41.5701C162.332 43.9138 162.332 47.7134 160.091 50.0575C157.849 52.4011 154.214 52.4011 151.972 50.0575C149.731 47.7134 149.731 43.9138 151.972 41.5701C154.214 39.226 157.849 39.226 160.091 41.5701Z" fill="white"/>
<path d="M241.588 25.9177H241.588C228.057 25.9177 217.087 37.3855 217.087 51.5318V51.5323C217.087 65.6785 228.057 77.1463 241.588 77.1463H241.588C255.119 77.1463 266.089 65.6785 266.089 51.5323V51.5318C266.089 37.3855 255.119 25.9177 241.588 25.9177Z" fill="#FF9218"/>
<path fill-rule="evenodd" clip-rule="evenodd" d="M252.724 62.2774V63.99C252.724 64.9356 251.999 65.7025 251.107 65.7025H231.706C230.814 65.7025 230.089 64.9356 230.089 63.99V62.2495C230.089 57.0669 235.68 53.6999 241.407 53.6999C247.133 53.6999 252.724 57.0686 252.724 62.2495M245.464 38.6534C247.706 40.997 247.706 44.7966 245.464 47.1408C243.222 49.4844 239.588 49.4844 237.346 47.1408C235.104 44.7966 235.104 40.997 237.346 38.6534C239.588 36.3092 243.222 36.3092 245.464 38.6534Z" fill="white"/>
</svg>
