<svg width="294" height="266" viewBox="0 0 294 266" fill="none" xmlns="http://www.w3.org/2000/svg">
<path d="M265.74 164.356C267.347 196.94 209.421 263.197 138.023 238.674C104.817 227.266 107.63 208.334 82.3793 183.382C67.3288 168.51 45.7041 157.265 39.6897 135.648C34.4937 116.989 37.6803 96.9343 46.6882 83.8893C66.9466 54.5529 107.844 34.4643 148.142 80.6867C188.439 126.909 261.584 80.318 265.74 164.356Z" fill="url(#paint0_linear_0_1)"/>
<path d="M245.476 82.52C239.935 93.3951 227.8 94.8893 208.359 92.8227C193.738 91.2653 180.405 90.0603 165.783 81.2929C155.549 75.1609 147.448 66.8638 141.535 58.8058C135.127 50.0763 126.184 40.1133 130.568 30.2152C136.593 16.6187 171.436 5.16689 205.269 23.8941C242.435 44.4715 250.896 71.8908 245.476 82.52Z" fill="url(#paint1_linear_0_1)"/>
<path opacity="0.76" fill-rule="evenodd" clip-rule="evenodd" d="M42.895 92.9674C42.895 55.4187 70.5729 24.98 104.715 24.98C138.857 24.98 166.535 55.4187 166.535 92.9674C166.535 130.516 138.857 160.954 104.715 160.954C70.5729 160.954 42.895 130.516 42.895 92.9674ZM163.088 93.0569C163.088 64.9313 142.356 42.1314 116.783 42.1314C91.2087 42.1314 70.4771 64.9313 70.4771 93.0569C70.4771 121.182 91.2087 143.982 116.783 143.982C142.356 143.982 163.088 121.182 163.088 93.0569Z" fill="url(#paint2_linear_0_1)"/>
<path opacity="0.76" d="M122.653 117.633C126.597 117.633 129.795 121.149 129.795 125.487C129.795 129.825 126.597 133.341 122.653 133.341C118.709 133.341 115.511 129.825 115.511 125.487C115.511 121.149 118.709 117.633 122.653 117.633Z" fill="url(#paint3_linear_0_1)"/>
<path d="M273.381 108.11C266.129 108.11 260.249 101.644 260.249 93.6683C260.249 85.6923 266.129 79.2266 273.381 79.2266C280.633 79.2266 286.513 85.6923 286.513 93.6683C286.513 101.644 280.633 108.11 273.381 108.11Z" fill="url(#paint4_linear_0_1)"/>
<path d="M261.208 65.5332C258.827 65.5332 256.898 63.4111 256.898 60.7932C256.898 58.1754 258.827 56.0532 261.208 56.0532C263.588 56.0532 265.518 58.1754 265.518 60.7932C265.518 63.4111 263.588 65.5332 261.208 65.5332Z" fill="url(#paint5_linear_0_1)"/>
<path d="M75.1595 216.687C71.589 216.687 68.6945 213.503 68.6945 209.577C68.6945 205.65 71.589 202.467 75.1595 202.467C78.73 202.467 81.6245 205.65 81.6245 209.577C81.6245 213.503 78.73 216.687 75.1595 216.687Z" fill="url(#paint6_linear_0_1)"/>
<path fill-rule="evenodd" clip-rule="evenodd" d="M231.707 195.711C231.436 195.669 231.16 195.686 230.896 195.763C230.631 195.839 230.383 195.972 230.165 196.155C229.948 196.338 229.766 196.566 229.629 196.827C229.493 197.088 229.405 197.376 229.37 197.674L222.121 260.594C222.053 261.181 222.2 261.774 222.529 262.241C222.858 262.709 223.343 263.014 223.876 263.088C224.41 263.163 224.948 263.002 225.374 262.64C225.799 262.278 226.076 261.745 226.144 261.158L233.467 198.248C233.536 197.656 233.39 197.057 233.061 196.582C232.731 196.107 232.245 195.794 231.707 195.711Z" fill="white" stroke="#E1E4E5" stroke-width="4" stroke-linecap="round" stroke-linejoin="round"/>
<path fill-rule="evenodd" clip-rule="evenodd" d="M230.878 195.711C231.149 195.669 231.425 195.686 231.689 195.763C231.954 195.839 232.202 195.972 232.42 196.155C232.637 196.338 232.819 196.566 232.956 196.827C233.092 197.088 233.18 197.376 233.215 197.674L240.464 260.594C240.532 261.181 240.386 261.774 240.056 262.241C239.727 262.709 239.242 263.014 238.709 263.088C238.175 263.163 237.637 263.002 237.212 262.64C236.786 262.278 236.509 261.745 236.441 261.158L229.118 198.248C229.049 197.656 229.195 197.057 229.524 196.582C229.854 196.107 230.34 195.794 230.878 195.711ZM208.992 195.711C208.721 195.669 208.446 195.686 208.181 195.763C207.916 195.839 207.668 195.972 207.451 196.155C207.233 196.338 207.051 196.566 206.915 196.827C206.778 197.088 206.69 197.376 206.656 197.674L199.406 260.594C199.37 260.911 199.395 261.232 199.481 261.537C199.568 261.842 199.712 262.122 199.905 262.36C200.099 262.598 200.336 262.788 200.602 262.916C200.867 263.045 201.155 263.109 201.445 263.105C201.933 263.098 202.403 262.897 202.768 262.539C203.132 262.181 203.367 261.691 203.429 261.158L210.753 198.248C210.821 197.656 210.675 197.057 210.346 196.582C210.016 196.107 209.53 195.794 208.992 195.711ZM254.675 195.711C254.946 195.669 255.222 195.686 255.486 195.763C255.751 195.839 255.999 195.972 256.217 196.155C256.434 196.338 256.616 196.566 256.753 196.827C256.889 197.088 256.977 197.376 257.012 197.674L264.261 260.594C264.329 261.181 264.182 261.774 263.853 262.241C263.524 262.709 263.039 263.014 262.506 263.088C261.972 263.163 261.434 263.002 261.008 262.64C260.583 262.278 260.306 261.745 260.238 261.158L252.915 198.248C252.846 197.656 252.992 197.057 253.321 196.582C253.651 196.107 254.137 195.794 254.675 195.711Z" fill="white" stroke="#E1E4E5" stroke-width="4" stroke-linecap="round" stroke-linejoin="round"/>
<path fill-rule="evenodd" clip-rule="evenodd" d="M203.927 206.039C200.372 206.039 197.491 202.87 197.491 198.961C197.491 195.052 200.372 191.883 203.927 191.883H217.953C228.511 191.883 237.336 183.049 238.325 171.489L240.649 144.351C241.408 135.489 248.173 128.717 256.267 128.717C265.405 128.717 272.609 137.272 271.908 147.292L269.5 181.726C268.54 195.445 258.138 206.039 245.626 206.039H203.927Z" fill="white" stroke="#E1E4E5" stroke-width="4" stroke-linecap="round" stroke-linejoin="round"/>
<path fill-rule="evenodd" clip-rule="evenodd" d="M197.491 198.791C197.491 198.852 197.536 198.902 197.591 198.902H239.141C251.651 198.902 262.052 188.311 263.014 174.593L265.417 140.33C265.467 139.626 265.478 138.92 265.449 138.214C265.244 133.133 261.406 128.938 256.785 128.731C256.568 128.721 256.35 128.717 256.133 128.717C248.06 128.717 241.312 135.47 240.553 144.309L238.23 171.362C237.24 182.893 228.437 191.703 217.906 191.703H203.91C200.365 191.703 197.491 194.864 197.491 198.763V198.791Z" fill="white"/>
<path d="M239.14 197.848H197.591V199.955H239.14V197.848ZM262.059 174.512C261.135 187.681 251.15 197.848 239.14 197.848V199.955C252.15 199.955 262.968 188.94 263.969 174.674L262.059 174.512ZM264.462 140.248L262.059 174.512L263.969 174.674L266.372 140.41L264.462 140.248ZM264.492 138.261C264.519 138.924 264.509 139.587 264.462 140.248L266.372 140.41C266.425 139.664 266.436 138.915 266.406 138.167L264.492 138.261ZM256.133 129.77C256.338 129.77 256.542 129.774 256.745 129.783L256.823 127.678C256.593 127.668 256.363 127.663 256.133 127.663V129.77ZM241.507 144.408C242.219 136.11 248.554 129.77 256.133 129.77V127.663C247.566 127.663 240.405 134.83 239.6 144.209L241.507 144.408ZM239.184 171.461L241.507 144.408L239.6 144.209L237.277 171.263L239.184 171.461ZM217.906 192.756C228.931 192.756 238.147 183.533 239.184 171.461L237.277 171.263C236.333 182.253 227.943 190.65 217.906 190.65V192.756ZM203.91 192.756H217.906V190.65H203.91V192.756ZM198.448 198.763C198.448 195.446 200.893 192.756 203.91 192.756V190.65C199.836 190.65 196.533 194.282 196.533 198.763H198.448ZM198.448 198.787V198.763H196.533V198.795L198.448 198.787ZM266.406 138.167C266.178 132.538 261.941 127.908 256.823 127.678L256.745 129.783C260.871 129.968 264.309 133.728 264.492 138.261L266.406 138.167ZM197.591 197.848C197.818 197.848 198.035 197.947 198.196 198.123C198.357 198.299 198.447 198.538 198.448 198.787L196.533 198.795C196.534 199.103 196.646 199.398 196.844 199.616C197.042 199.833 197.311 199.955 197.591 199.955V197.848Z" fill="#E1E4E5"/>
<path fill-rule="evenodd" clip-rule="evenodd" d="M193.07 239.008C193.07 239.008 196.655 246.971 193.716 249.481C190.772 251.991 182.998 256.694 182.998 256.694L203.596 255.271L199.017 237.903L193.07 239.008Z" fill="#F8AE9D"/>
<path fill-rule="evenodd" clip-rule="evenodd" d="M201.555 246.214C200.907 246.554 201.973 249.754 199.693 249.529C197.413 249.305 195.981 245.998 194.3 246.213C192.618 246.426 191.551 249.757 188.349 252.077C185.148 254.397 180.402 257.164 180.72 259.497C181.038 261.829 188.507 262.454 192.291 261.681C196.075 260.91 197.841 259.237 200.295 259.37C202.75 259.504 204.293 259.173 205.063 257.44C205.832 255.706 202.303 245.821 201.555 246.214ZM224.098 168.823C217.863 169.13 183.156 177.572 176.851 179.006C170.545 180.44 165.214 188.201 170.022 197.188C175.422 207.276 189.357 235.926 192.74 242.384C194.415 245.581 202.862 243.788 200.878 238.423C197.179 228.421 195.461 203.296 186.03 194.135C186.03 194.135 217.746 200.205 231.446 193.251C241.403 188.197 239.151 168.083 224.098 168.823Z" fill="#694823"/>
<path fill-rule="evenodd" clip-rule="evenodd" d="M180.597 126.016C180.597 126.016 180.668 121.939 178.893 119.023C177.118 116.107 177.048 113.009 175.705 113.11C174.361 113.211 175.692 120.412 175.692 120.412C175.692 120.412 173.987 119.695 172.763 118.79C171.538 117.884 167.826 113.419 166.958 114.21C165.488 115.558 167.857 123.163 169.147 124.684C170.442 126.204 176.832 130.454 176.832 130.454L195.648 151.302L198.462 140.235L180.597 126.016Z" fill="#F8AE9D"/>
<path fill-rule="evenodd" clip-rule="evenodd" d="M218.236 124.175C215.335 131.574 210.024 145.166 207.834 149.222C205.09 154.3 200.763 156.538 195.697 152.77C194.637 151.981 191.593 149.224 191.593 149.224C192.043 144.397 193.683 140.363 196.51 137.119L198.429 138.866C198.429 138.866 203.873 123.519 208.252 114.629C212.045 106.937 222.651 112.927 218.236 124.175ZM230.773 95.4544V102.001L235.144 98.1304C235.144 98.1304 236.488 91.8572 237.581 87.1983C238.266 84.2769 239.936 74.3893 233.214 74.8522C227.708 64.1772 211.671 70.7842 211.543 83.8261C211.39 99.5123 211.515 105.62 211.515 105.62C220.583 106.192 225.688 104.75 230.773 95.4544Z" fill="#694823"/>
<path fill-rule="evenodd" clip-rule="evenodd" d="M235.238 107.92C235.238 107.92 231.171 106.87 231.03 99.5412C230.889 92.2126 230.988 89.7109 230.988 89.7109L222.03 89.5334C222.03 89.5334 221.933 97.701 221.931 100.655C221.927 107.838 217.124 108.427 217.124 108.427C217.124 108.427 217.945 114.353 226.063 114.856C232.4 115.248 235.238 107.92 235.238 107.92Z" fill="#F8AE9D"/>
<path fill-rule="evenodd" clip-rule="evenodd" d="M233.077 86.0518C237.073 85.8817 236.421 92.3155 232.27 92.3065C232.27 92.3065 229.859 101.446 221.488 101.446C214.689 101.446 214.247 90.7939 214.186 88.6688C214.119 86.4031 214.11 78.9597 214.11 78.9597L233.232 78.9497L233.077 86.0518Z" fill="#F8AE9D"/>
<path fill-rule="evenodd" clip-rule="evenodd" d="M233.386 86.0095C231.73 86.3097 231.931 87.5158 231.48 87.4104C229.193 86.8753 219.937 87.5811 218.746 81.9831C217.263 85.4802 216.9 86.3402 213.635 87.2788V77.0309L234.288 74.8521C234.288 74.8521 233.968 85.9031 233.386 86.0095Z" fill="#694823"/>
<path fill-rule="evenodd" clip-rule="evenodd" d="M234.33 107.17C229.226 110.608 223.326 111.868 217.833 108.135C208.87 127.572 206.636 150.763 208.793 176.395C221.862 182.086 232.848 180.967 242.2 174.462L234.33 107.17Z" fill="#FF9218"/>
<path fill-rule="evenodd" clip-rule="evenodd" d="M170.728 239.328C170.728 239.328 170.836 248.701 163.814 252.205C156.796 255.709 151.796 255.498 152.432 258.207C153.068 260.916 171.335 260.806 173.041 258.688C174.495 256.886 177.657 240.103 178.528 241.386L170.728 239.328Z" fill="#F8AE9D"/>
<path fill-rule="evenodd" clip-rule="evenodd" d="M175.828 252.564C174.751 251.713 173.847 256.624 170.923 255.258C168 253.893 170.305 249.379 168.465 248.546C166.626 247.714 163.074 252.19 158.355 253.278C153.637 254.365 149.807 255.317 148.718 257.337C147.78 259.073 148.718 259.627 148.718 259.627C148.718 259.627 153.26 262.122 156.082 262.671C160.182 263.468 172.032 264 173.33 262.546C174.128 261.653 176.366 252.991 175.828 252.564ZM243.636 165.926C243.636 165.926 252.702 186.982 239.962 194.212C227.641 201.204 190.756 192.935 190.756 192.935C190.756 192.935 191.415 198.77 190.756 203.975C189.035 217.569 180.848 240.217 179.116 243.063C176.721 246.998 169.424 244.03 169.287 240.753C169.149 237.477 174.787 195.626 175.644 187.645C176.497 179.664 179.19 178.505 187.055 176.323C188.862 175.822 210.23 169.982 212.188 170.153C229.007 171.615 243.636 165.926 243.636 165.926Z" fill="#694823"/>
<path fill-rule="evenodd" clip-rule="evenodd" d="M234.106 107.186C225.654 137.637 220.585 180.809 246.984 173.298C232.96 144.904 252.024 132.123 247.703 117.448C246.226 112.431 234.217 106.792 234.106 107.186ZM218.281 107.922C215.055 116.819 213.505 123.8 212.058 136.86C210.852 147.737 211.455 170.182 211.455 170.182L207.469 171.044C207.469 171.044 204.62 136.367 205.572 131.902C207.171 124.41 208.255 120.032 210.365 113.183C211.528 109.424 218.281 107.922 218.281 107.922Z" fill="#694823"/>
<path fill-rule="evenodd" clip-rule="evenodd" d="M232.332 141.756C232.332 141.756 227.127 136.025 225.325 135.36C223.522 134.695 213.65 133.896 213.716 135.399C213.792 137.009 220.145 136.916 220.732 137.708C221.32 138.5 222.137 144.665 224.358 145.273C226.574 145.881 231.168 147.68 231.168 147.68L251.618 159.301L249.439 147.681L232.332 141.756Z" fill="#F8AE9D"/>
<path fill-rule="evenodd" clip-rule="evenodd" d="M247.996 117.491C254.199 127.119 259.495 141.785 261.528 147.503C263.561 153.221 261.51 161.845 252.571 160.152C251.506 159.951 249.775 159.21 249.775 159.21C246.489 154.255 245.912 150 247.139 146.212L248.295 146.749C248.295 146.749 239.41 129.43 237.24 124.787C233.617 117.033 242.532 109.007 247.996 117.491Z" fill="#694823"/>
<path d="M222.302 262.131C221.558 262.131 220.837 261.852 220.256 261.34C219.676 260.828 219.271 260.115 219.11 259.316L201.478 172.338C201.022 170.089 202.578 167.954 204.674 167.954C205.418 167.954 206.14 168.233 206.721 168.745C207.302 169.257 207.707 169.972 207.869 170.771L225.495 257.751C225.951 259.998 224.396 262.131 222.302 262.131ZM85.5058 262.131C86.2496 262.13 86.9712 261.852 87.5515 261.34C88.1319 260.828 88.5363 260.114 88.6981 259.316L106.331 172.334C106.786 170.087 105.232 167.954 103.138 167.954C102.394 167.954 101.673 168.233 101.092 168.745C100.512 169.256 100.108 169.97 99.9458 170.769L82.3131 257.751C81.8577 259.998 83.4121 262.131 85.5058 262.131Z" fill="white" stroke="#E1E4E5" stroke-width="4" stroke-linecap="round" stroke-linejoin="round"/>
<path fill-rule="evenodd" clip-rule="evenodd" d="M85.0366 168.115V164.844C85.0366 162.966 85.9087 161.445 86.9804 161.435H222.043C223.121 161.435 223.987 162.966 223.987 164.844V168.115C223.987 170.001 223.115 171.523 222.043 171.523H217.752C216.89 171.523 216.064 171.9 215.455 172.57C214.846 173.24 214.503 174.149 214.503 175.096C214.503 175.238 214.477 175.379 214.427 175.51C214.377 175.642 214.305 175.761 214.213 175.861C214.121 175.961 214.012 176.04 213.892 176.094C213.773 176.148 213.645 176.176 213.515 176.175H91.9422C91.6819 176.175 91.4322 176.061 91.248 175.859C91.0639 175.657 90.9602 175.383 90.96 175.096C90.96 174.627 90.876 174.162 90.7127 173.729C90.5494 173.295 90.31 172.901 90.0083 172.57C89.7066 172.238 89.3483 171.975 88.9541 171.795C88.5599 171.616 88.1374 171.523 87.7107 171.523H86.9804C85.9029 171.523 85.0366 170.001 85.0366 168.115Z" fill="white"/>
<path d="M86.9802 161.435L86.9725 160.382H86.9802V161.435ZM85.9942 164.844V168.115H84.0786V164.844H85.9942ZM86.9874 162.489C86.895 162.49 86.6684 162.56 86.4175 162.999C86.1752 163.423 85.9942 164.073 85.9942 164.844H84.0786C84.0786 163.737 84.3339 162.687 84.7955 161.879C85.2485 161.085 85.9937 160.39 86.9725 160.382L86.9874 162.489ZM222.043 162.489H86.9802V160.382H222.043V162.489ZM223.029 164.844C223.029 164.071 222.849 163.419 222.607 162.994C222.357 162.555 222.134 162.489 222.043 162.489V160.382C223.03 160.382 223.778 161.081 224.231 161.877C224.691 162.687 224.945 163.739 224.945 164.844H223.029ZM223.029 168.115V164.844H224.945V168.115H223.029ZM222.043 170.47C222.132 170.47 222.356 170.404 222.606 169.966C222.848 169.543 223.029 168.892 223.029 168.115H224.945C224.945 169.225 224.69 170.278 224.228 171.087C223.774 171.882 223.026 172.577 222.043 172.577V170.47ZM217.752 170.47H222.043V172.577H217.752V170.47ZM213.515 175.122C213.52 175.122 213.525 175.121 213.53 175.119C213.533 175.117 213.536 175.115 213.539 175.112C213.541 175.11 213.543 175.108 213.544 175.105C213.544 175.104 213.545 175.102 213.545 175.096H215.461C215.461 176.283 214.583 177.228 213.515 177.228V175.122ZM91.942 175.122H213.515V177.228H91.942V175.122ZM91.9175 175.096C91.9175 175.102 91.918 175.104 91.919 175.105C91.9195 175.107 91.9214 175.111 91.9242 175.114C91.9265 175.116 91.9293 175.119 91.9323 175.12C91.9354 175.121 91.9387 175.122 91.942 175.122V177.228C91.4277 177.228 90.9344 177.004 90.5706 176.604C90.2068 176.204 90.0022 175.662 90.002 175.096H91.9175ZM86.9802 170.47H87.7105V172.577H86.9802V170.47ZM85.9942 168.115C85.9942 168.893 86.1747 169.544 86.4161 169.967C86.6646 170.403 86.8878 170.47 86.9802 170.47V172.577C85.9951 172.577 85.2466 171.883 84.7926 171.086C84.3315 170.276 84.0786 169.224 84.0786 168.115H85.9942ZM90.002 175.096C90.002 174.765 89.9427 174.438 89.8275 174.132C89.7124 173.826 89.5436 173.549 89.3308 173.315C89.118 173.081 88.8654 172.895 88.5874 172.768C88.3094 172.642 88.0114 172.577 87.7105 172.577V170.47C88.263 170.47 88.81 170.59 89.3204 170.822C89.8309 171.055 90.2946 171.395 90.6853 171.825C91.076 172.255 91.3859 172.765 91.5973 173.326C91.8087 173.887 91.9175 174.489 91.9175 175.096H90.002ZM217.752 172.577C217.144 172.577 216.561 172.842 216.132 173.315C215.702 173.787 215.461 174.428 215.461 175.096H213.545C213.545 173.869 213.988 172.693 214.777 171.825C215.566 170.958 216.636 170.47 217.752 170.47V172.577Z" fill="#E1E4E5"/>
<path d="M163.571 2.85999H88.6217C83.3321 2.85999 79.0439 7.57592 79.0439 13.3933V118.244C79.0439 124.061 83.3321 128.777 88.6217 128.777H163.571C168.861 128.777 173.149 124.061 173.149 118.244V13.3933C173.149 7.57592 168.861 2.85999 163.571 2.85999Z" fill="white" stroke="#E1E4E5" stroke-width="4" stroke-linecap="round" stroke-linejoin="round"/>
<mask id="mask0_0_1" style="mask-type:alpha" maskUnits="userSpaceOnUse" x="77" y="0" width="99" height="131">
<path d="M79.0439 2.85999H173.149V128.777H79.0439V2.85999Z" fill="white" stroke="white" stroke-width="4" stroke-linecap="round" stroke-linejoin="round"/>
</mask>
<g mask="url(#mask0_0_1)">
<path d="M148.19 81.8599H104.132C102.281 81.8599 100.78 83.5104 100.78 85.5465C100.78 87.5826 102.281 89.2332 104.132 89.2332H148.19C150.042 89.2332 151.542 87.5826 151.542 85.5465C151.542 83.5104 150.042 81.8599 148.19 81.8599Z" fill="white" stroke="#E1E4E5" stroke-width="4" stroke-linecap="round" stroke-linejoin="round"/>
<path d="M147.711 66.0598H104.611C102.496 66.0598 100.78 67.9462 100.78 70.2731C100.78 72.6001 102.496 74.4865 104.611 74.4865H147.711C149.827 74.4865 151.542 72.6001 151.542 70.2731C151.542 67.9462 149.827 66.0598 147.711 66.0598Z" fill="white" stroke="#E1E4E5" stroke-width="4" stroke-linecap="round" stroke-linejoin="round"/>
<path d="M139.092 96.0798H113.232C111.116 96.0798 109.4 97.9662 109.4 100.293C109.4 102.62 111.116 104.507 113.232 104.507H139.092C141.207 104.507 142.923 102.62 142.923 100.293C142.923 97.9662 141.207 96.0798 139.092 96.0798Z" fill="white" stroke="#E1E4E5" stroke-width="4" stroke-linecap="round" stroke-linejoin="round"/>
<path fill-rule="evenodd" clip-rule="evenodd" d="M126.161 14.4465C135.947 14.4465 143.88 23.1713 143.88 33.9332C143.88 44.6956 135.947 53.4199 126.161 53.4199C116.375 53.4199 108.442 44.6956 108.442 33.9332C108.442 23.1713 116.375 14.4465 126.161 14.4465ZM126.401 24.9799C121.772 24.9799 118.02 29.1063 118.02 34.1965C118.02 39.2868 121.772 43.4132 126.401 43.4132C131.029 43.4132 134.781 39.2868 134.781 34.1965C134.781 29.1063 131.029 24.9799 126.401 24.9799Z" fill="#FF9218"/>
</g>
<path fill-rule="evenodd" clip-rule="evenodd" d="M38.5502 236.596H39.7057C39.9849 236.596 40.21 236.846 40.21 237.15V238.422C40.21 238.729 39.983 238.976 39.7057 238.976H38.5502C38.4165 238.976 38.2885 238.917 38.194 238.813C38.0994 238.709 38.046 238.569 38.0454 238.422V237.15C38.0453 237.077 38.0583 237.005 38.0836 236.938C38.1089 236.87 38.1461 236.809 38.193 236.758C38.2399 236.706 38.2956 236.665 38.3569 236.637C38.4182 236.61 38.4839 236.595 38.5502 236.596ZM42.557 236.596H43.7126C43.9894 236.596 44.2168 236.846 44.2168 237.15V238.422C44.2168 238.729 43.9894 238.976 43.7126 238.976H42.557C42.4234 238.976 42.2954 238.917 42.2008 238.813C42.1063 238.709 42.0529 238.569 42.0523 238.422V237.15C42.0523 236.846 42.2797 236.596 42.557 236.596ZM46.5668 236.596H47.7223C47.9991 236.596 48.2266 236.846 48.2266 237.15V238.422C48.2266 238.729 47.9991 238.976 47.7223 238.976H46.5668C46.4331 238.976 46.3051 238.917 46.2106 238.813C46.116 238.709 46.0626 238.569 46.062 238.422V237.15C46.0619 237.077 46.0749 237.005 46.1002 236.938C46.1255 236.87 46.1627 236.809 46.2096 236.758C46.2565 236.706 46.3122 236.665 46.3735 236.637C46.4348 236.61 46.5005 236.595 46.5668 236.596ZM50.5736 236.596H51.7292C52.0065 236.596 52.2335 236.846 52.2335 237.15V238.422C52.2335 238.729 52.0065 238.976 51.7292 238.976H50.5736C50.4396 238.976 50.3111 238.918 50.216 238.814C50.121 238.71 50.0672 238.569 50.0665 238.422V237.15C50.068 237.003 50.122 236.863 50.2169 236.759C50.3117 236.655 50.4398 236.597 50.5736 236.596Z" fill="#E1E4E5"/>
<path fill-rule="evenodd" clip-rule="evenodd" d="M104.144 233.013H107.465C107.85 233.014 108.22 233.182 108.493 233.481C108.765 233.78 108.919 234.186 108.921 234.609V238.264C108.921 238.474 108.883 238.682 108.81 238.876C108.736 239.07 108.629 239.246 108.494 239.394C108.359 239.542 108.198 239.66 108.022 239.74C107.845 239.82 107.656 239.861 107.465 239.86H104.144C103.76 239.858 103.392 239.689 103.121 239.39C102.85 239.092 102.697 238.687 102.695 238.264V234.609C102.697 234.187 102.85 233.782 103.121 233.483C103.392 233.184 103.76 233.015 104.144 233.013Z" fill="url(#paint7_linear_0_1)"/>
<path fill-rule="evenodd" clip-rule="evenodd" d="M42.704 241.401H43.8596C44.1369 241.401 44.3639 241.651 44.3639 241.956V243.23C44.3639 243.534 44.1369 243.784 43.8596 243.784H42.704C42.5703 243.784 42.4421 243.726 42.3474 243.622C42.2528 243.518 42.1995 243.377 42.1993 243.23V241.958C42.1989 241.885 42.2117 241.813 42.2369 241.745C42.2621 241.677 42.2992 241.616 42.3462 241.564C42.3931 241.512 42.4489 241.471 42.5103 241.443C42.5717 241.415 42.6376 241.401 42.704 241.401ZM46.7109 241.401H47.8665C48.1437 241.401 48.3707 241.651 48.3707 241.956V243.23C48.3707 243.534 48.1437 243.784 47.8665 243.784H46.7109C46.5773 243.784 46.4492 243.725 46.3547 243.621C46.2602 243.517 46.2068 243.376 46.2062 243.23V241.958C46.2058 241.885 46.2186 241.813 46.2438 241.745C46.269 241.677 46.3061 241.616 46.353 241.564C46.3999 241.512 46.4557 241.471 46.5171 241.443C46.5786 241.415 46.6444 241.401 46.7109 241.401ZM50.7178 241.401H51.8738C52.153 241.401 52.3805 241.651 52.3805 241.956V243.23C52.3805 243.534 52.153 243.784 51.8738 243.784H50.7178C50.5842 243.783 50.4563 243.725 50.3619 243.621C50.2675 243.517 50.2141 243.376 50.2135 243.23V241.958C50.2135 241.651 50.441 241.401 50.7178 241.401ZM46.5668 231.433H47.7223C47.9991 231.433 48.2266 231.683 48.2266 231.988V233.259C48.2266 233.566 47.9991 233.814 47.7223 233.814H46.5668C46.4331 233.813 46.3051 233.755 46.2106 233.651C46.116 233.547 46.0626 233.406 46.062 233.259V231.988C46.0619 231.915 46.0749 231.843 46.1002 231.775C46.1255 231.708 46.1627 231.647 46.2096 231.595C46.2565 231.544 46.3122 231.503 46.3735 231.475C46.4348 231.447 46.5005 231.433 46.5668 231.433ZM50.5736 231.433H51.7292C52.0065 231.433 52.2334 231.683 52.2334 231.988V233.259C52.2334 233.566 52.0065 233.814 51.7292 233.814H50.5736C50.4396 233.814 50.3111 233.755 50.216 233.652C50.121 233.548 50.0672 233.407 50.0665 233.259V231.988C50.068 231.841 50.122 231.7 50.2168 231.596C50.3117 231.493 50.4398 231.434 50.5736 231.433ZM14.339 149.236H15.9811C16.3786 149.236 16.698 149.591 16.698 150.024V151.83C16.698 152.267 16.3752 152.619 15.9811 152.619H14.339C14.1491 152.618 13.9672 152.534 13.8329 152.387C13.6986 152.239 13.6228 152.039 13.6221 151.83V150.024C13.6219 149.921 13.6403 149.818 13.6763 149.722C13.7122 149.627 13.765 149.54 13.8316 149.466C13.8982 149.393 13.9773 149.335 14.0644 149.295C14.1515 149.256 14.2448 149.236 14.339 149.236ZM20.033 149.236H21.6751C22.0692 149.236 22.392 149.591 22.392 150.024V151.83C22.392 152.267 22.0692 152.619 21.6751 152.619H20.033C19.8431 152.618 19.6611 152.534 19.5269 152.387C19.3926 152.239 19.3168 152.039 19.3161 151.83V150.024C19.3161 149.591 19.6393 149.236 20.033 149.236ZM25.7308 149.236H27.3734C27.767 149.236 28.0903 149.591 28.0903 150.024V151.83C28.0903 152.267 27.767 152.619 27.3734 152.619H25.7308C25.5409 152.618 25.359 152.534 25.2247 152.387C25.0904 152.239 25.0146 152.039 25.0139 151.83V150.024C25.0137 149.921 25.0321 149.818 25.0681 149.722C25.104 149.627 25.1568 149.54 25.2234 149.466C25.29 149.393 25.3691 149.335 25.4562 149.295C25.5433 149.256 25.6366 149.236 25.7308 149.236ZM31.4248 149.236H33.0674C33.461 149.236 33.7843 149.591 33.7843 150.024V151.83C33.7843 152.267 33.461 152.619 33.0674 152.619H31.4248C31.2344 152.619 31.0517 152.536 30.9168 152.388C30.7819 152.24 30.7058 152.04 30.705 151.83V150.024C30.707 149.815 30.7836 149.616 30.9182 149.468C31.0528 149.321 31.2348 149.237 31.4248 149.236ZM37.1197 149.236H38.7618C39.1588 149.236 39.4821 149.591 39.4821 150.024V151.83C39.4819 151.934 39.4631 152.037 39.4268 152.133C39.3905 152.228 39.3374 152.315 39.2705 152.389C39.2036 152.462 39.1243 152.52 39.037 152.559C38.9497 152.599 38.8562 152.619 38.7618 152.619H37.1197C36.9298 152.618 36.7478 152.535 36.6135 152.387C36.4792 152.239 36.4035 152.039 36.4028 151.83V150.024C36.4028 149.591 36.7256 149.236 37.1197 149.236ZM20.2418 156.065H21.8843C22.278 156.065 22.6012 156.42 22.6012 156.853V158.663C22.6012 159.096 22.278 159.451 21.8843 159.451H20.2418C20.0517 159.451 19.8696 159.368 19.7353 159.22C19.601 159.072 19.5255 158.872 19.5253 158.663V156.857C19.5247 156.753 19.5428 156.65 19.5785 156.554C19.6142 156.458 19.6669 156.37 19.7335 156.297C19.8001 156.223 19.8793 156.165 19.9666 156.125C20.0538 156.085 20.1473 156.064 20.2418 156.065ZM25.9357 156.065H27.5783C27.972 156.065 28.2952 156.42 28.2952 156.853V158.663C28.2952 159.096 27.972 159.451 27.5783 159.451H25.9357C25.7458 159.45 25.5639 159.367 25.4297 159.219C25.2954 159.072 25.2196 158.871 25.2188 158.663V156.857C25.2183 156.753 25.2364 156.65 25.2722 156.554C25.308 156.458 25.3607 156.37 25.4273 156.297C25.494 156.223 25.5732 156.164 25.6605 156.125C25.7477 156.085 25.8413 156.064 25.9357 156.065ZM31.6302 156.065H33.2728C33.6698 156.065 33.993 156.42 33.993 156.853V158.663C33.993 159.096 33.6698 159.451 33.2728 159.451H31.6302C31.4403 159.45 31.2584 159.367 31.1241 159.219C30.9898 159.072 30.9141 158.871 30.9133 158.663V156.857C30.9133 156.42 31.2366 156.065 31.6302 156.065ZM25.7308 141.9H27.3734C27.767 141.9 28.0903 142.255 28.0903 142.688V144.494C28.0903 144.931 27.767 145.283 27.3734 145.283H25.7308C25.5409 145.282 25.359 145.199 25.2247 145.051C25.0904 144.903 25.0146 144.703 25.0139 144.494V142.688C25.0137 142.585 25.0321 142.482 25.0681 142.386C25.104 142.291 25.1568 142.204 25.2234 142.13C25.29 142.057 25.3691 141.999 25.4562 141.96C25.5433 141.92 25.6366 141.9 25.7308 141.9ZM31.4248 141.9H33.0674C33.461 141.9 33.7843 142.255 33.7843 142.688V144.494C33.7843 144.931 33.461 145.283 33.0674 145.283H31.4248C31.2344 145.283 31.0517 145.2 30.9168 145.052C30.7819 144.904 30.7058 144.704 30.705 144.494V142.688C30.707 142.479 30.7836 142.28 30.9182 142.132C31.0528 141.985 31.2348 141.901 31.4248 141.9ZM273.737 211.332H275.015C275.324 211.332 275.572 211.608 275.572 211.946V213.35C275.572 213.69 275.321 213.963 275.015 213.963H273.737C273.59 213.963 273.448 213.898 273.344 213.783C273.239 213.668 273.18 213.513 273.18 213.35V211.946C273.18 211.865 273.194 211.785 273.222 211.711C273.25 211.636 273.291 211.569 273.343 211.512C273.395 211.455 273.456 211.409 273.524 211.379C273.591 211.348 273.664 211.332 273.737 211.332ZM278.166 211.332H279.443C279.75 211.332 280.001 211.608 280.001 211.946V213.35C280.001 213.69 279.75 213.963 279.443 213.963H278.166C278.018 213.963 277.877 213.898 277.772 213.783C277.668 213.668 277.609 213.513 277.609 213.35V211.946C277.609 211.608 277.86 211.332 278.166 211.332ZM282.598 211.332H283.875C284.181 211.332 284.433 211.608 284.433 211.946V213.35C284.433 213.69 284.181 213.963 283.875 213.963H282.598C282.45 213.963 282.309 213.898 282.204 213.783C282.1 213.668 282.041 213.513 282.04 213.35V211.946C282.04 211.865 282.054 211.785 282.082 211.711C282.11 211.636 282.151 211.569 282.203 211.512C282.255 211.455 282.316 211.409 282.384 211.379C282.452 211.348 282.524 211.332 282.598 211.332ZM287.026 211.332H288.304C288.61 211.332 288.862 211.608 288.862 211.946V213.35C288.862 213.69 288.61 213.963 288.304 213.963H287.026C286.878 213.963 286.736 213.899 286.631 213.784C286.527 213.669 286.467 213.513 286.467 213.35V211.946C286.469 211.608 286.72 211.332 287.026 211.332ZM291.456 211.332H292.733C293.042 211.332 293.293 211.608 293.293 211.946V213.35C293.293 213.69 293.042 213.963 292.733 213.963H291.456C291.149 213.963 290.898 213.687 290.898 213.35V211.946C290.898 211.608 291.149 211.332 291.456 211.332ZM278.329 216.643H279.606C279.913 216.643 280.163 216.92 280.163 217.256V218.664C280.163 219.001 279.913 219.278 279.606 219.278H278.329C278.181 219.278 278.039 219.213 277.935 219.098C277.83 218.983 277.771 218.827 277.771 218.664V217.26C277.771 217.179 277.785 217.099 277.813 217.024C277.84 216.949 277.882 216.881 277.933 216.824C277.985 216.767 278.047 216.721 278.115 216.69C278.183 216.659 278.255 216.643 278.329 216.643ZM282.757 216.643H284.035C284.341 216.643 284.592 216.92 284.592 217.256V218.664C284.592 218.827 284.533 218.982 284.428 219.097C284.324 219.212 284.183 219.277 284.035 219.278H282.757C282.609 219.277 282.468 219.212 282.364 219.097C282.259 218.982 282.2 218.827 282.2 218.664V217.26C282.199 217.179 282.213 217.099 282.241 217.024C282.269 216.949 282.31 216.881 282.362 216.824C282.414 216.767 282.475 216.721 282.543 216.69C282.611 216.659 282.684 216.643 282.757 216.643ZM287.186 216.643H288.464C288.772 216.643 289.024 216.92 289.024 217.256V218.664C289.023 218.827 288.964 218.983 288.859 219.098C288.754 219.213 288.612 219.278 288.464 219.278H287.186C287.039 219.277 286.897 219.212 286.793 219.097C286.688 218.982 286.629 218.827 286.629 218.664V217.26C286.629 216.92 286.88 216.643 287.186 216.643ZM282.598 205.627H283.875C284.181 205.627 284.433 205.903 284.433 206.24V207.645C284.433 207.984 284.181 208.258 283.875 208.258H282.598C282.45 208.257 282.309 208.192 282.204 208.077C282.1 207.963 282.041 207.807 282.04 207.645V206.24C282.04 206.159 282.054 206.079 282.082 206.005C282.11 205.93 282.151 205.863 282.203 205.806C282.255 205.749 282.317 205.704 282.384 205.673C282.452 205.642 282.524 205.626 282.598 205.627ZM287.026 205.627H288.304C288.61 205.627 288.862 205.903 288.862 206.24V207.645C288.862 207.984 288.61 208.258 288.304 208.258H287.026C286.878 208.258 286.736 208.193 286.632 208.078C286.527 207.963 286.467 207.808 286.467 207.645V206.24C286.468 206.077 286.528 205.922 286.633 205.807C286.737 205.693 286.879 205.628 287.026 205.627Z" fill="#E1E4E5"/>
<path d="M46.4008 34.2261C46.0522 35.7582 46.5143 37.3508 47.2767 38.6886C47.8155 39.6339 48.5683 38.5901 49.6664 38.4226C51.365 38.1614 52.4406 36.1837 52.8079 31.3663C52.9784 27.8482 52.8979 26.0923 52.7198 25.7852C52.0852 24.6855 50.4532 24.3174 49.1669 24.4238" fill="#694823"/>
<path fill-rule="evenodd" clip-rule="evenodd" d="M49.4836 243.61C49.4836 243.61 49.3802 250.845 53.4407 253.414C57.5007 255.985 63.7909 260.759 63.7909 260.759L39.8618 261.647L40.5438 243.545L49.4836 243.61Z" fill="#F8AE9D"/>
<path fill-rule="evenodd" clip-rule="evenodd" d="M39.0273 251.582L38.638 263.319H44.196L44.5772 261.807C44.5772 261.807 46.6694 261.713 47.8786 262.365C49.1568 263.056 49.3287 263.391 49.3287 263.391L66.9585 263.432C66.9585 263.432 67.8287 259.639 62.4546 256.895C57.0805 254.151 53.1675 250.256 52.4238 249.857C51.6753 249.456 50.1648 249.229 49.1012 250.173C48.0371 251.115 47.1957 253.596 44.7855 253.673C41.6833 253.774 39.9008 249.598 39.0273 251.582ZM32.1553 125.539C32.1553 125.539 38.6864 186.487 38.8894 190.724C39.0929 194.961 36.7919 202.272 36.8364 210.197C36.8814 218.122 37.6769 246.054 37.6769 246.054L52.0842 246.312C52.0842 246.312 58.1393 195.838 58.2049 188.269C58.2696 180.701 58.8251 126.268 58.8251 126.268L32.1553 125.539Z" fill="#694823"/>
<path fill-rule="evenodd" clip-rule="evenodd" d="M14.5333 242.339L11.7256 261.091L22.0763 261.034L22.4039 242.045L14.5333 242.339Z" fill="#F8AE9D"/>
<path fill-rule="evenodd" clip-rule="evenodd" d="M12.6991 250.622C12.4129 250.69 12.1557 250.862 11.9681 251.109C11.7806 251.357 11.6735 251.666 11.6638 251.988L11.556 255.592C10.0686 257.411 9.37802 262.72 9.32391 263.153C9.32127 263.173 9.32031 263.193 9.32104 263.213C9.44746 265.796 24.8955 265.745 26.0467 263.283C26.0753 263.217 26.0835 263.143 26.0702 263.072C25.9485 262.238 25.1062 256.86 23.4406 255.423L23.4286 251.861C23.4278 251.543 23.3319 251.235 23.156 250.984C22.98 250.732 22.7337 250.551 22.455 250.469L20.2 249.802C18.6871 247.369 16.625 247.455 14.8579 250.106L12.6991 250.622ZM19.6152 126.113C19.6152 126.113 15.0031 167.696 15.0653 175.659C15.128 183.623 16.4852 187.12 14.5539 192.832C12.6225 198.545 10.9756 244.141 10.9756 244.141L25.257 245.449C25.257 245.449 34.3803 196.659 35.3726 189.894C36.3648 183.13 48.6268 125.539 48.6268 125.539L19.6152 126.113Z" fill="#694823"/>
<path fill-rule="evenodd" clip-rule="evenodd" d="M90.8294 51.3477C90.8294 51.3477 89.637 44.0397 90.0656 42.5597C90.4319 41.281 93.8933 39.4366 93.8933 39.4366C93.8933 39.4366 99.9135 28.9775 101.231 30.0424C102.303 30.9056 98.0956 38.6166 98.0956 38.6166C98.0956 38.6166 101.932 43.0432 101.878 45.0214C101.825 47.0006 95.6169 53.1947 95.6169 53.1947L90.8294 51.3477ZM28.9536 53.0646C28.9536 53.0646 32.9188 52.0413 33.0562 44.896C33.1937 37.7513 33.097 35.3128 33.097 35.3128L42.4971 35.139C42.4971 35.139 42.5919 43.1022 42.5933 45.982C42.5972 52.2525 46.8315 53.9468 46.8315 53.9468C46.8315 53.9468 46.4795 60.8029 38.5659 61.2922C32.3872 61.6751 28.9536 53.0646 28.9536 53.0646Z" fill="#F8AE9D"/>
<path fill-rule="evenodd" clip-rule="evenodd" d="M32.2335 31.7007C28.3377 31.5348 28.9732 37.8074 33.0203 37.799C33.0203 37.799 37.37 47.417 44.1985 47.4422C47.488 47.4538 48.5621 44.2317 49.5482 41.9696C50.5342 39.7076 51.2578 36.3238 51.3181 34.2524C51.3828 32.0436 51.3909 24.7861 51.3909 24.7861L32.0821 24.7766L32.2335 31.7007Z" fill="#F8AE9D"/>
<path fill-rule="evenodd" clip-rule="evenodd" d="M46.9791 53.521C46.9791 53.521 57.1057 56.9975 59.5461 61.1503C67.407 68.7454 77.2386 79.1755 77.2386 79.1755C77.2386 79.1755 86.6023 53.3293 89.6634 50.3826C91.7581 48.3665 95.9311 50.8592 96.7088 53.4215C97.7078 56.7126 91.2945 76.0149 88.2655 85.1315C87.6784 86.898 87.2187 88.2815 86.9644 89.0926C85.1173 94.986 80.6234 98.3661 75.155 94.62C72.9507 93.1105 66.3904 88.163 60.7936 83.6779C60.706 88.39 60.5584 93.3549 60.4186 98.0707C60.0781 109.527 59.7817 119.51 60.4943 120.807C64.0242 127.237 59.3306 131.651 43.7911 133.273C28.2521 134.895 14.4659 133.567 16.9676 124.986C17.4891 123.198 17.4824 119.35 17.2224 114.349C15.7 114.26 14.1788 114.15 12.659 114.019C6.17343 113.457 1.37736 110.392 0.708352 102.433C0.239998 96.8594 9.89488 70.693 13.5158 62.0893C14.3624 60.0764 15.6722 58.823 17.1558 58.1978C17.5011 57.7744 17.8899 57.4763 18.3272 57.3183C20.9864 56.3539 30.5216 51.9484 30.5216 51.9484L41.8645 60.1101L46.9791 53.521ZM16.1717 99.5806L16.1463 99.6533L16.1779 99.6575L16.1717 99.5806Z" fill="#FF9218"/>
<path fill-rule="evenodd" clip-rule="evenodd" d="M41.3408 106.487C41.3408 106.487 44.8008 105.722 46.2168 104.499C47.6324 103.277 51.9204 102.413 51.9204 102.413L50.5489 105.59C50.5489 105.59 61.0581 104.505 61.3071 105.645C61.5561 106.785 58.5161 108.025 58.5161 108.025C58.5161 108.025 57.0172 111.104 55.5662 112.889C54.1932 114.578 47.3714 114.377 44.9799 113.323C42.9135 112.412 40.667 112.867 40.667 112.867L41.3408 106.487Z" fill="#F8AE9D"/>
<path d="M33.2932 25.0727C33.8626 25.8922 34.8663 26.0729 35.6934 26.2346C36.8049 26.4526 37.3546 26.9061 37.9317 28.1237C38.2971 28.9016 38.6625 29.7537 39.3162 30.1751C39.8487 30.5201 39.8324 29.6474 39.9114 28.9732C39.9186 28.9101 39.9298 28.8476 39.9449 28.7863C40.0719 28.2475 40.5919 28.3381 40.7428 28.8695C40.8812 29.3509 41.1776 29.7585 41.5545 29.9855C41.6158 30.0223 41.6814 30.055 41.7465 30.0408C41.8351 30.0271 41.9046 29.9344 41.962 29.8512C42.0822 29.6779 42.2015 29.4578 42.3245 29.225C42.7311 28.456 43.5074 28.7257 43.9619 29.462C44.2468 29.9207 44.5849 30.3926 45.0504 30.4995C45.2003 30.5364 45.389 30.5085 45.4579 30.3463C45.5465 30.1472 45.4081 29.9481 45.4311 29.7448C45.4503 29.5547 45.5235 29.4715 45.604 29.3092C45.9191 28.6841 46.6494 28.6614 47.0943 29.1823C47.4046 29.5457 47.7274 29.8933 48.0616 30.2262C48.2039 30.3652 48.4117 30.5037 48.5539 30.3652C48.631 30.2909 48.6502 30.1661 48.6655 30.0455C48.7464 29.4572 48.8231 28.8695 48.904 28.2812C48.95 27.9525 49.108 27.5217 49.3771 27.6055C49.5079 27.6471 49.5845 27.7998 49.6578 27.9389C49.7464 28.1148 51.3267 30.1198 51.3578 29.9671C51.604 28.8279 52.1078 27.7909 52.3539 26.6517C53.9462 19.3215 46.8812 13.4271 41.4851 13.395C40.2854 13.3855 39.1893 13.4076 38.0236 13.7178C36.7814 14.0512 35.4702 14.5805 34.3434 15.3257C32.7626 16.3675 31.5663 18.2614 31.8742 20.5213" fill="#694823"/>
<path d="M37.6811 22.7031C38.4421 23.6601 38.6437 25.0068 38.7141 26.2792C38.819 28.1973 38.6772 30.1897 37.8789 31.8929C37.6514 32.3775 37.4834 34.7764 37.1328 34.6437C37.0212 34.6026 37.0399 32.7419 36.7449 31.7397C36.29 30.186 34.1939 29.5935 33.2505 30.5752C31.7434 32.1373 32.6274 34.0349 33.1269 35.2157C33.4257 35.9282 33.8994 36.7277 33.9812 37.4819C34.0818 38.4473 34.112 41.9649 33.545 42.7854C33.0714 43.4733 32.5676 40.15 32.139 39.4954C28.9649 34.6189 25.9211 22.2017 31.3406 19.5084C32.1648 19.0986 34.7087 18.8869 35.4806 19.4093" fill="#694823"/>
<defs>
<linearGradient id="paint0_linear_0_1" x1="196.505" y1="359.673" x2="66.7254" y2="-172.732" gradientUnits="userSpaceOnUse">
<stop stop-color="white"/>
<stop offset="1" stop-color="#EEEEEE"/>
</linearGradient>
<linearGradient id="paint1_linear_0_1" x1="208.149" y1="153.001" x2="149.002" y2="-88.6709" gradientUnits="userSpaceOnUse">
<stop stop-color="white"/>
<stop offset="1" stop-color="#EEEEEE"/>
</linearGradient>
<linearGradient id="paint2_linear_0_1" x1="102.079" y1="237.189" x2="106.689" y2="-122.927" gradientUnits="userSpaceOnUse">
<stop stop-color="white"/>
<stop offset="1" stop-color="#EEEEEE"/>
</linearGradient>
<linearGradient id="paint3_linear_0_1" x1="122.348" y1="142.148" x2="122.881" y2="100.546" gradientUnits="userSpaceOnUse">
<stop stop-color="white"/>
<stop offset="1" stop-color="#EEEEEE"/>
</linearGradient>
<linearGradient id="paint4_linear_0_1" x1="259.69" y1="138.745" x2="260.669" y2="62.2506" gradientUnits="userSpaceOnUse">
<stop stop-color="white"/>
<stop offset="1" stop-color="#EEEEEE"/>
</linearGradient>
<linearGradient id="paint5_linear_0_1" x1="256.714" y1="75.5883" x2="257.035" y2="50.4813" gradientUnits="userSpaceOnUse">
<stop stop-color="white"/>
<stop offset="1" stop-color="#EEEEEE"/>
</linearGradient>
<linearGradient id="paint6_linear_0_1" x1="68.4187" y1="231.769" x2="68.9011" y2="194.109" gradientUnits="userSpaceOnUse">
<stop stop-color="white"/>
<stop offset="1" stop-color="#EEEEEE"/>
</linearGradient>
<linearGradient id="paint7_linear_0_1" x1="105.675" y1="229.175" x2="105.908" y2="247.308" gradientUnits="userSpaceOnUse">
<stop stop-color="white"/>
<stop offset="1" stop-color="#EEEEEE"/>
</linearGradient>
</defs>
</svg>
