<svg width="540" height="307" viewBox="0 0 540 307" fill="none" xmlns="http://www.w3.org/2000/svg">
<path d="M192.51 106.501C134.917 108.635 115.673 133.835 113.25 146.168L116.712 229.835C137.248 224.724 181.988 226.768 196.663 275.835C215.007 337.168 373.18 258.168 451.055 290.501C513.355 316.368 474.59 213.168 474.59 190.501L320.917 199.835C577.732 180.835 502.279 22.3013 431.673 5.50128C361.066 -11.2987 313.649 26.7239 298.766 47.8346C287.344 66.5013 250.103 104.368 192.51 106.501Z" fill="url(#paint0_linear_0_1)" stroke="#E1E4E5"/>
<path d="M487.601 235.835H458.341C448.009 235.835 439.633 243.901 439.633 253.851V282.031C439.633 291.982 448.009 300.048 458.341 300.048H487.601C497.933 300.048 506.308 291.982 506.308 282.031V253.851C506.308 243.901 497.933 235.835 487.601 235.835Z" fill="#FF9218" stroke="white" stroke-width="13.513" stroke-linecap="round" stroke-linejoin="round"/>
<path d="M462.243 255.103C462.504 255.352 462.683 255.67 462.756 256.017C462.829 256.364 462.794 256.724 462.654 257.051C462.514 257.379 462.277 257.659 461.971 257.856C461.666 258.053 461.307 258.158 460.939 258.158C460.572 258.158 460.212 258.053 459.907 257.856C459.602 257.659 459.364 257.379 459.225 257.051C459.085 256.724 459.049 256.364 459.123 256.017C459.196 255.67 459.374 255.352 459.636 255.103C459.984 254.771 460.455 254.584 460.946 254.584C461.437 254.584 461.907 254.771 462.256 255.103M506.307 261.2C500.817 260.391 495.207 260.838 489.929 262.504C484.652 264.17 479.856 267.009 475.928 270.791C472.001 274.573 469.054 279.193 467.323 284.275C465.593 289.358 465.13 294.761 465.97 300.049" stroke="white" stroke-width="13.513" stroke-linecap="round" stroke-linejoin="round"/>
<path d="M229.198 183.835C229.198 169.844 217.421 158.501 202.893 158.501C188.366 158.501 176.589 169.844 176.589 183.835C176.589 197.826 188.366 209.168 202.893 209.168C217.421 209.168 229.198 197.826 229.198 183.835Z" fill="#FF9218"/>
<path d="M211.538 179.406L200.042 190.39L193.144 183.8" stroke="white" stroke-width="6.307" stroke-linecap="round" stroke-linejoin="round"/>
<path fill-rule="evenodd" clip-rule="evenodd" d="M304.359 117.714C308.275 110.997 310.534 103.258 310.534 95.0012C310.534 69.3179 288.919 48.5012 262.251 48.5012C235.583 48.5012 213.969 69.3179 213.969 95.0012C213.969 120.685 235.583 141.501 262.251 141.501C270.824 141.501 278.86 139.327 285.835 135.555L310.534 141.501L304.359 117.714Z" fill="#FF9218"/>
<path fill-rule="evenodd" clip-rule="evenodd" d="M250.064 111.853H244.079C243.437 111.853 242.821 111.608 242.367 111.171C241.913 110.733 241.658 110.14 241.658 109.522V91.2447C241.658 90.6262 241.913 90.0332 242.367 89.5959C242.821 89.1586 243.437 88.9129 244.079 88.9127H250.064C251.401 88.9127 252.485 89.9573 252.485 91.4193V109.697C252.485 110.809 251.401 111.853 250.064 111.853ZM252.485 106.909L257.172 110.653C258.144 111.429 259.367 111.854 260.629 111.853H276.383C277.263 111.853 278.118 111.577 278.82 111.067C279.522 110.557 280.033 109.841 280.274 109.026L283.728 97.3887C283.889 96.8443 283.925 96.2727 283.834 95.7134C283.743 95.1541 283.527 94.6206 283.2 94.15L282.099 92.5693C281.73 92.0373 281.229 91.6013 280.643 91.3C280.056 90.9987 279.401 90.8414 278.737 90.842H270.647L270.67 83.7407C270.686 78.466 263.49 76.5053 260.636 81.0067L252.485 93.8567" fill="white"/>
<path fill-rule="evenodd" clip-rule="evenodd" d="M63.4969 207.197L67.8005 232.077C69.196 240.157 62.7279 247.509 54.226 247.509C47.4983 247.509 41.7556 242.827 40.6515 236.431L35.5914 207.197M77.4494 207.197H28.6152C17.0564 207.197 7.68652 198.173 7.68652 187.041C7.68652 175.909 17.0564 166.885 28.6152 166.885H77.4494" fill="#FF9218"/>
<path d="M77.4494 207.197H28.6152C17.0564 207.197 7.68652 198.173 7.68652 187.041C7.68652 175.909 17.0564 166.885 28.6152 166.885H77.4494" stroke="#FF9218" stroke-width="13.438" stroke-linecap="round" stroke-linejoin="round"/>
<path fill-rule="evenodd" clip-rule="evenodd" d="M77.4497 166.885L108.462 146.973C113.101 143.999 119.308 147.2 119.308 152.569V221.519C119.308 226.887 113.101 230.083 108.462 227.109L77.4497 207.197" fill="#FF9218"/>
<path d="M77.4497 166.885L108.462 146.973C113.101 143.999 119.308 147.2 119.308 152.569V221.519C119.308 226.887 113.101 230.083 108.462 227.109L77.4497 207.197" stroke="#FF9218" stroke-width="13.438" stroke-linecap="round" stroke-linejoin="round"/>
<path d="M77.4497 207.185V166.873" stroke="#FF9218" stroke-width="13.438" stroke-linecap="round" stroke-linejoin="round"/>
<path d="M313.649 237.168C334.676 237.168 351.721 220.752 351.721 200.501C351.721 180.251 334.676 163.835 313.649 163.835C292.622 163.835 275.577 180.251 275.577 200.501C275.577 220.752 292.622 237.168 313.649 237.168Z" fill="#FF9218"/>
<path fill-rule="evenodd" clip-rule="evenodd" d="M320.711 187.501C326.48 187.501 330.349 192.717 330.349 197.573C330.349 207.431 314.288 215.501 313.995 215.501C313.702 215.501 297.641 207.431 297.641 197.573C297.641 192.717 301.51 187.501 307.279 187.501C310.577 187.501 312.743 189.085 313.995 190.496C315.247 189.085 317.413 187.501 320.711 187.501ZM403.638 150.501L378.718 126.507V126.501H360.028C353.143 126.501 347.568 121.131 347.568 114.501V54.5012C347.568 47.8712 353.143 42.5012 360.028 42.5012H447.248C454.132 42.5012 459.708 47.8712 459.708 54.5012V114.501C459.708 121.131 454.132 126.501 447.248 126.501H428.558L403.638 150.495" fill="white"/>
<path d="M428.558 96.5012H378.718M378.718 72.5012H428.558" stroke="#E1E4E5" stroke-width="13.5" stroke-linecap="round" stroke-linejoin="round"/>
<path fill-rule="evenodd" clip-rule="evenodd" d="M122.443 258.067H120.509C120.041 258.067 119.665 258.434 119.665 258.881V260.743C119.665 261.194 120.045 261.557 120.509 261.557H122.443C122.907 261.557 123.288 261.19 123.288 260.743V258.881C123.288 258.774 123.266 258.668 123.224 258.569C123.182 258.47 123.12 258.381 123.041 258.305C122.963 258.229 122.869 258.169 122.767 258.129C122.664 258.088 122.554 258.067 122.443 258.067ZM115.736 258.067H113.802C113.338 258.067 112.957 258.434 112.957 258.881V260.743C112.957 261.194 113.338 261.557 113.802 261.557H115.736C116.199 261.557 116.58 261.19 116.58 260.743V258.881C116.58 258.434 116.199 258.067 115.736 258.067ZM109.025 258.067H107.091C106.627 258.067 106.247 258.434 106.247 258.881V260.743C106.247 261.194 106.627 261.557 107.091 261.557H109.025C109.489 261.557 109.87 261.19 109.87 260.743V258.881C109.87 258.774 109.848 258.668 109.806 258.569C109.764 258.47 109.701 258.381 109.623 258.305C109.544 258.23 109.451 258.17 109.349 258.129C109.246 258.088 109.136 258.067 109.025 258.067ZM102.319 258.067H100.385C99.9212 258.067 99.5405 258.434 99.5405 258.881V260.743C99.5405 261.194 99.9212 261.557 100.385 261.557H102.319C102.787 261.557 103.168 261.19 103.168 260.743V258.881C103.165 258.665 103.075 258.459 102.916 258.307C102.757 258.155 102.543 258.069 102.319 258.067ZM95.6128 258.067H93.6781C93.2108 258.067 92.8301 258.434 92.8301 258.881V260.743C92.8301 261.194 93.2108 261.557 93.6781 261.557H95.6128C96.0766 261.557 96.4566 261.19 96.4566 260.743V258.881C96.4566 258.434 96.0766 258.067 95.6128 258.067ZM115.491 265.111H113.557C113.093 265.111 112.713 265.477 112.713 265.924V267.791C112.713 268.237 113.093 268.603 113.557 268.603H115.491C115.715 268.603 115.93 268.518 116.088 268.365C116.247 268.213 116.336 268.006 116.336 267.791V265.928C116.337 265.821 116.315 265.714 116.273 265.615C116.231 265.516 116.169 265.426 116.09 265.35C116.012 265.274 115.919 265.214 115.816 265.173C115.713 265.132 115.603 265.11 115.491 265.111ZM108.784 265.111H106.85C106.386 265.111 106.005 265.477 106.005 265.924V267.791C106.005 268.237 106.386 268.603 106.85 268.603H108.784C109.248 268.603 109.628 268.237 109.628 267.791V265.928C109.629 265.821 109.608 265.714 109.566 265.615C109.523 265.516 109.461 265.426 109.383 265.35C109.304 265.274 109.211 265.214 109.108 265.173C109.005 265.132 108.895 265.11 108.784 265.111ZM102.077 265.111H100.142C99.6748 265.111 99.294 265.477 99.294 265.924V267.791C99.294 268.237 99.6748 268.603 100.142 268.603H102.077C102.541 268.603 102.921 268.237 102.921 267.791V265.928C102.921 265.477 102.541 265.111 102.077 265.111ZM109.025 250.502H107.091C106.627 250.502 106.247 250.868 106.247 251.315V253.177C106.247 253.628 106.627 253.991 107.091 253.991H109.025C109.489 253.991 109.87 253.624 109.87 253.177V251.315C109.87 251.208 109.848 251.102 109.806 251.003C109.764 250.905 109.701 250.815 109.623 250.739C109.544 250.664 109.451 250.604 109.349 250.563C109.246 250.523 109.136 250.502 109.025 250.502ZM102.319 250.502H100.385C99.9212 250.502 99.5405 250.868 99.5405 251.315V253.177C99.5405 253.628 99.9212 253.991 100.385 253.991H102.319C102.787 253.991 103.168 253.624 103.168 253.177V251.315C103.165 251.099 103.075 250.893 102.916 250.741C102.757 250.589 102.543 250.503 102.319 250.502Z" fill="#E1E4E5"/>
<path d="M471.152 208.545C482.825 208.545 492.288 199.432 492.288 188.19C492.288 176.948 482.825 167.835 471.152 167.835C459.479 167.835 450.017 176.948 450.017 188.19C450.017 199.432 459.479 208.545 471.152 208.545Z" fill="#FF9218"/>
<path d="M472.684 182.585C472.684 181.771 471.998 181.11 471.152 181.11C470.306 181.11 469.621 181.771 469.621 182.585V193.795C469.621 194.61 470.306 195.27 471.152 195.27C471.998 195.27 472.684 194.61 472.684 193.795V182.585Z" fill="white"/>
<path d="M476.972 189.665C477.818 189.665 478.504 189.005 478.504 188.19C478.504 187.376 477.818 186.715 476.972 186.715H465.333C464.487 186.715 463.801 187.376 463.801 188.19C463.801 189.005 464.487 189.665 465.333 189.665H476.972Z" fill="white"/>
<path d="M506.455 69.2119C518.128 69.2119 527.591 60.0985 527.591 48.8566C527.591 37.6146 518.128 28.5012 506.455 28.5012C494.783 28.5012 485.32 37.6146 485.32 48.8566C485.32 60.0985 494.783 69.2119 506.455 69.2119Z" fill="#FF9218"/>
<path d="M507.987 43.252C507.987 42.4371 507.301 41.7766 506.455 41.7766C505.609 41.7766 504.924 42.4371 504.924 43.252V54.4613C504.924 55.2761 505.609 55.9366 506.455 55.9366C507.301 55.9366 507.987 55.2761 507.987 54.4613V43.252Z" fill="white"/>
<path d="M512.275 50.3321C513.121 50.3321 513.807 49.6717 513.807 48.8571C513.807 48.0424 513.121 47.3821 512.275 47.3821H500.636C499.79 47.3821 499.104 48.0424 499.104 48.8571C499.104 49.6717 499.79 50.3321 500.636 50.3321H512.275Z" fill="white"/>
<path d="M525.123 124.501C532.96 124.501 539.313 118.383 539.313 110.835C539.313 103.287 532.96 97.168 525.123 97.168C517.285 97.168 510.932 103.287 510.932 110.835C510.932 118.383 517.285 124.501 525.123 124.501Z" fill="#FF9218"/>
<path d="M526.151 107.072C526.151 106.525 525.69 106.081 525.123 106.081C524.555 106.081 524.094 106.525 524.094 107.072V114.598C524.094 115.145 524.555 115.589 525.123 115.589C525.69 115.589 526.151 115.145 526.151 114.598V107.072Z" fill="white"/>
<path d="M529.03 111.825C529.598 111.825 530.059 111.382 530.059 110.835C530.059 110.288 529.598 109.845 529.03 109.845H521.215C520.647 109.845 520.187 110.288 520.187 110.835C520.187 111.382 520.647 111.825 521.215 111.825H529.03Z" fill="white"/>
<path d="M382.548 302.545C394.221 302.545 403.683 293.432 403.683 282.19C403.683 270.948 394.221 261.835 382.548 261.835C370.875 261.835 361.412 270.948 361.412 282.19C361.412 293.432 370.875 302.545 382.548 302.545Z" fill="#FF9218"/>
<path d="M384.079 276.585C384.079 275.771 383.393 275.11 382.548 275.11C381.702 275.11 381.016 275.771 381.016 276.585V287.795C381.016 288.61 381.702 289.27 382.548 289.27C383.393 289.27 384.079 288.61 384.079 287.795V276.585Z" fill="white"/>
<path d="M388.368 283.665C389.214 283.665 389.899 283.005 389.899 282.19C389.899 281.376 389.214 280.715 388.368 280.715H376.729C375.882 280.715 375.197 281.376 375.197 282.19C375.197 283.005 375.882 283.665 376.729 283.665H388.368Z" fill="white"/>
<path d="M285.268 270.501C285.268 258.351 275.04 248.501 262.424 248.501C249.808 248.501 239.581 258.351 239.581 270.501C239.581 282.652 249.808 292.501 262.424 292.501C275.04 292.501 285.268 282.652 285.268 270.501Z" fill="#FF9218"/>
<path fill-rule="evenodd" clip-rule="evenodd" d="M272.844 279.603V281.035C272.844 281.415 272.687 281.779 272.408 282.048C272.129 282.316 271.75 282.467 271.355 282.467H253.493C253.099 282.467 252.72 282.316 252.441 282.048C252.162 281.779 252.005 281.415 252.004 281.035V279.58C252.004 275.247 257.152 272.431 262.424 272.431C267.697 272.431 272.844 275.248 272.844 279.58M266.05 259.621C268.162 261.58 268.162 264.757 266.05 266.716C263.937 268.676 260.511 268.676 258.398 266.716C256.286 264.757 256.286 261.58 258.398 259.621C260.511 257.661 263.937 257.661 266.05 259.621Z" fill="white"/>
<path d="M423.712 196.501C423.712 184.351 413.485 174.501 400.869 174.501C388.253 174.501 378.025 184.351 378.025 196.501C378.025 208.652 388.253 218.501 400.869 218.501C413.485 218.501 423.712 208.652 423.712 196.501Z" fill="#FF9218"/>
<path fill-rule="evenodd" clip-rule="evenodd" d="M411.289 205.603V207.035C411.288 207.415 411.131 207.779 410.852 208.048C410.573 208.316 410.194 208.467 409.8 208.467H391.938C391.543 208.467 391.165 208.316 390.885 208.048C390.606 207.779 390.449 207.415 390.449 207.035V205.58C390.449 201.247 395.596 198.431 400.869 198.431C406.141 198.431 411.289 201.248 411.289 205.58M404.494 185.621C406.607 187.58 406.607 190.757 404.494 192.716C402.381 194.676 398.955 194.676 396.843 192.716C394.73 190.757 394.73 187.58 396.843 185.621C398.955 183.661 402.381 183.661 404.494 185.621Z" fill="white"/>
<path d="M193.895 104.501C193.895 92.351 183.667 82.5012 171.051 82.5012C158.435 82.5012 148.208 92.351 148.208 104.501C148.208 116.651 158.435 126.501 171.051 126.501C183.667 126.501 193.895 116.651 193.895 104.501Z" fill="#FF9218"/>
<path fill-rule="evenodd" clip-rule="evenodd" d="M181.471 113.603V115.035C181.471 115.415 181.313 115.779 181.034 116.048C180.755 116.316 180.377 116.467 179.982 116.467H162.12C161.725 116.467 161.347 116.316 161.068 116.048C160.788 115.779 160.631 115.415 160.631 115.035V113.58C160.631 109.247 165.778 106.431 171.051 106.431C176.324 106.431 181.471 109.248 181.471 113.58M174.676 93.6206C176.789 95.58 176.789 98.7566 174.676 100.716C172.563 102.676 169.138 102.676 167.025 100.716C164.912 98.7566 164.912 95.58 167.025 93.6206C169.138 91.6606 172.563 91.6606 174.676 93.6206Z" fill="white"/>
<defs>
<linearGradient id="paint0_linear_0_1" x1="314.581" y1="467.357" x2="307.461" y2="-323.544" gradientUnits="userSpaceOnUse">
<stop stop-color="white"/>
<stop offset="1" stop-color="#EEEEEE"/>
</linearGradient>
</defs>
</svg>
