<svg width="71" height="76" viewBox="0 0 71 76" fill="none" xmlns="http://www.w3.org/2000/svg">
<path fill-rule="evenodd" clip-rule="evenodd" d="M31.0194 28.6296C31.1318 24.5307 32.2832 21.909 34.2978 19.358C35.1582 18.2683 36.0583 17.1981 37.3056 16.6511C38.8109 15.9915 39.5897 17.3446 41.5756 17.2739C43.4292 17.2082 44.8662 14.6175 48.6996 19.5441C50.2534 21.5409 51.5029 24.5675 51.7521 28.535L49.1516 29.642C48.0222 27.651 47.6871 23.0535 45.7828 24.0681C44.8794 25.8231 46.4888 28.5704 46.9232 30.3463C44.8568 31.8733 38.0337 31.7947 35.8599 30.3463C36.3636 27.9303 37.6628 26.2503 37.1656 24.0104C35.4437 23.5514 35.5407 24.0392 34.919 26.054C34.4951 27.4273 34.0933 28.3236 33.7979 29.7726L31.0194 28.6296ZM63.4702 26.3189C62.284 24.714 62.2846 20.5126 60.3499 21.3973C59.1429 22.3701 60.5897 24.3834 61.1574 27.0376C59.5695 28.123 55.8578 28.022 53.9248 27.6611C53.3097 25.8426 53.3411 24.014 52.5055 21.9191L50.3333 17.7141C50.314 17.5856 50.2473 17.5632 50.2137 17.481C51.4533 15.9829 52.5695 14.5302 54.7362 15.3103C57.4805 16.2997 58.5399 14.4176 60.1614 15.1775C62.6021 16.322 65.3348 20.7926 65.4903 25.31L63.4702 26.3189ZM17.2503 25.1996C17.3539 20.5833 20.16 16.2268 22.6877 15.153C24.123 14.5432 25.3477 16.182 28.3125 15.1566C29.9512 14.5901 31.7668 16.3473 32.5699 17.3504C31.5436 20.0825 29.8266 20.6396 28.9095 27.7116C26.428 27.9815 23.9257 27.9404 21.5589 27.1444C21.6724 26.0115 22.7269 23.5832 22.7555 22.92C22.8283 21.2551 22.8988 22.2431 22.389 21.6037C20.8898 19.9721 19.9004 24.7515 19.4765 26.4538L17.2503 25.1996ZM40.1458 2.99481C46.0336 0.563613 48.1203 12.589 42.5688 14.3642C36.852 16.1914 34.397 5.369 40.1458 2.99481ZM25.2187 2.96306C30.2207 0.993709 32.3036 11.163 27.3088 12.7629C22.0902 14.4342 20.6131 4.77654 25.2187 2.96306ZM55.3011 2.9977C60.3907 0.788764 62.1909 10.8953 57.583 12.7081C52.8142 14.5836 50.1823 5.21962 55.3011 2.9977ZM31.0811 12.7016C35.6581 0.903504 24.3782 -4.30384 21.0353 4.19562C19.648 7.72299 20.4731 10.0762 21.5253 12.7016C20.1187 14.2019 18.5985 14.873 16.9891 18.0172C15.8338 20.2744 14.7816 23.7462 15.2352 26.9561C18.7192 29.8766 23.7228 30.6076 28.5418 30.4438C29.8795 30.3983 32.8603 32.3337 34.5591 32.9334C45.5496 36.8115 51.6281 30.2561 54.5455 30.4683C58.439 30.7512 65.1463 29.6673 67.4944 26.7916C67.9491 23.8343 66.8848 20.2117 65.7989 18.1124C63.9789 14.593 63.4178 15.2634 61.1999 12.7016C62.0994 10.0135 63.0397 7.3333 61.6722 4.03469C59.721 -0.673997 53.7799 -1.97006 51.1171 4.25118C49.7116 7.53464 50.6756 10.1672 51.6424 12.7016C51.0636 13.3316 48.7603 15.355 48.3094 15.6545C48.0239 15.4185 47.7808 15.249 47.4253 14.9625L46.5236 14.1723C49.4465 8.09824 47.1563 -0.0772023 41.2884 0.0360949C38.2388 0.0945476 36.4876 2.2573 35.5032 4.77654C33.9109 8.85019 35.0932 11.2359 36.271 14.2986L34.2713 15.7086L31.0811 12.7016Z" fill="white"/>
<path fill-rule="evenodd" clip-rule="evenodd" d="M9.52438 45.1639L14.7567 70.5085C14.0937 71.0656 13.936 71.0757 13.0244 71.3831L7.91603 73.1093L2.66658 47.5409L9.52438 45.1639ZM12.2908 47.7177C13.5673 46.7998 21.8256 44.1471 23.5916 43.9082C27.8749 43.3302 30.4031 47.1137 33.9957 48.4307C40.5465 50.8309 49.8896 42.6562 50.6861 48.9618C51.052 51.8571 49.102 52.5 47.428 53.1574C43.7665 54.5942 40.2775 56.0462 36.6287 57.4144C30.8446 59.5836 33.9544 60.9815 34.5039 60.9959L50.5141 54.652C52.823 52.9619 51.9935 50.9543 53.6172 49.5305C54.8293 48.4682 56.4123 47.2451 57.777 46.1511C59.2685 44.9568 65.3194 39.4182 66.7469 39.7638C67.8449 40.0301 69.6258 41.9728 67.259 44.9618L63.6967 49.1134C60.9606 51.8931 55.1082 59.2084 52.4339 61.9391C41.5089 73.0942 33.4076 69.3748 18.9297 66.3021C15.3046 65.5328 16.0807 66.528 15.1944 62.0365C14.3423 57.7182 12.7896 52.0209 12.2908 47.7177ZM16.6142 68.6128C30.3249 70.2264 41.6026 78.2993 54.6259 62.984C55.7922 61.6129 57.174 60.2966 58.2637 58.9111L69.2251 46.4318C72.1766 42.6266 69.6511 35.7212 65.2532 37.1681L56.802 43.7668C55.7156 44.689 53.6707 46.5234 52.5209 47.0849C51.4368 45.4078 50.8696 43.6997 48.3143 43.6657C43.0489 43.595 38.7116 48.6321 32.2016 44.5433C28.9227 42.4844 26.5471 40.2942 22.1955 41.472C18.7677 42.4 15.3112 43.8541 11.8107 44.8593C11.7666 44.7814 11.7225 44.6652 11.6993 44.6082L10.6879 42.2297C9.97855 41.7469 4.19115 44.2286 2.75918 44.6934C2.38327 44.8146 1.80619 44.9467 1.44075 45.1415L0.539572 45.9288C-0.0364128 47.017 5.85517 74.168 6.52375 75.9417C8.03509 76.3704 12.5217 74.3224 14.7115 73.5719C17.8593 72.4938 17.1423 72.0536 16.6142 68.6128Z" fill="white"/>
</svg>
