<svg width="370" height="302" viewBox="0 0 370 302" fill="none" xmlns="http://www.w3.org/2000/svg">
<path d="M341.283 174.171C343.325 211.59 269.737 287.676 179.034 259.514C136.849 246.415 140.423 224.673 108.345 196.02C89.2258 178.942 61.7541 166.028 54.1134 141.204C47.5131 119.778 51.5606 96.7472 63.0038 81.7675C88.7397 48.078 140.696 25.0093 191.889 78.0894C243.081 131.169 336.004 77.6661 341.283 174.171Z" fill="url(#paint0_linear_0_1)"/>
<path d="M312.908 81.7811C306.184 93.7115 291.457 95.3507 267.864 93.0834C250.12 91.3757 233.939 90.0538 216.194 80.4355C203.773 73.708 193.941 64.6065 186.765 55.7664C178.99 46.1897 168.136 35.26 173.457 24.4021C180.769 9.48627 223.053 -3.0767 264.114 17.4672C309.218 40.0415 319.487 70.1214 312.908 81.7811Z" fill="url(#paint1_linear_0_1)"/>
<path d="M130.636 260.604C111.589 234.113 92.0816 205.957 66.5424 192.09C40.1998 177.779 35.3418 186.599 33.5187 200.622C31.6949 214.643 39.8224 247.868 75.7724 266.771C111.732 285.68 148.459 285.396 130.636 260.604Z" fill="url(#paint2_linear_0_1)"/>
<path d="M338.928 107.78C330.371 109.795 321.32 102.581 321.32 102.581C321.32 102.581 326.15 92.1033 334.71 90.0941C343.267 88.0789 352.315 95.287 352.315 95.287C352.315 95.287 347.485 105.765 338.928 107.78Z" fill="url(#paint3_linear_0_1)"/>
<path d="M122.979 22.1415C131.988 28.3101 145.751 23.998 145.751 23.998C145.751 23.998 144.899 9.68583 135.884 3.52383C126.875 -2.64476 113.118 1.66074 113.118 1.66074C113.118 1.66074 113.97 15.9729 122.979 22.1415Z" fill="url(#paint4_linear_0_1)"/>
<path d="M8.34284 137.295C18.1093 147.177 36.3721 145.093 36.3721 145.093C36.3721 145.093 38.7892 126.988 29.0134 117.112C19.247 107.23 0.992832 109.308 0.992832 109.308C0.992832 109.308 -1.42362 127.413 8.34284 137.295Z" fill="url(#paint5_linear_0_1)"/>
<path d="M321.691 185.304C317.683 185.304 314.433 188.394 314.433 192.206C314.433 196.018 317.683 199.108 321.691 199.108C325.7 199.108 328.949 196.018 328.949 192.206C328.949 188.394 325.7 185.304 321.691 185.304Z" fill="#FF9218"/>
<path d="M74.2849 217.303C68.8818 217.303 64.5018 221.517 64.5018 226.715C64.5018 231.913 68.8818 236.126 74.2849 236.126C79.6879 236.126 84.0679 231.913 84.0679 226.715C84.0679 221.517 79.6879 217.303 74.2849 217.303Z" fill="#FF9218"/>
<path d="M61.0311 115.032C59.1139 115.032 57.5597 113.487 57.5597 111.581C57.5597 109.675 59.1139 108.13 61.0311 108.13C62.9483 108.13 64.5024 109.675 64.5024 111.581C64.5024 113.487 62.9483 115.032 61.0311 115.032Z" fill="#FF9218"/>
<path d="M331.342 63.2782C327.682 63.2782 324.716 60.3287 324.716 56.6902C324.716 53.0518 327.682 50.1023 331.342 50.1023C335.002 50.1023 337.969 53.0518 337.969 56.6902C337.969 60.3287 335.002 63.2782 331.342 63.2782Z" fill="#FF9218"/>
<path d="M320.067 254.442C316.775 254.442 314.107 251.789 314.107 248.517C314.107 245.245 316.775 242.592 320.067 242.592C323.358 242.592 326.027 245.245 326.027 248.517C326.027 251.789 323.358 254.442 320.067 254.442Z" fill="#E1E4E5"/>
<path d="M33.3694 176.715C29.907 176.715 27.1002 173.925 27.1002 170.482C27.1002 167.04 29.907 164.25 33.3694 164.25C36.8318 164.25 39.6387 167.04 39.6387 170.482C39.6387 173.925 36.8318 176.715 33.3694 176.715Z" fill="#E1E4E5"/>
<path d="M104.579 260.596C103.359 260.596 102.37 259.612 102.37 258.4C102.37 257.187 103.359 256.203 104.579 256.203C105.799 256.203 106.789 257.187 106.789 258.4C106.789 259.612 105.799 260.596 104.579 260.596Z" fill="#E1E4E5"/>
<path d="M273.41 39.7395C271.667 39.7395 270.254 38.335 270.254 36.6025C270.254 34.87 271.667 33.4656 273.41 33.4656C275.153 33.4656 276.565 34.87 276.565 36.6025C276.565 38.335 275.153 39.7395 273.41 39.7395Z" fill="#E1E4E5"/>
<path d="M74.9034 146.223C75.3442 147.858 74.3679 149.539 72.7227 149.978C71.0775 150.416 69.3865 149.445 68.9457 147.81C68.5048 146.174 69.4812 144.493 71.1263 144.055C72.7715 143.617 74.4626 144.587 74.9034 146.223Z" fill="#E1E4E5"/>
<path d="M75.5469 81.7778C73.2812 81.7778 71.4445 79.9519 71.4445 77.6995C71.4445 75.447 73.2812 73.6211 75.5469 73.6211C77.8127 73.6211 79.6494 75.447 79.6494 77.6995C79.6494 79.9519 77.8127 81.7778 75.5469 81.7778Z" fill="#E1E4E5"/>
<path d="M326.426 152.678C324.683 152.678 323.27 151.554 323.27 150.168C323.27 148.782 324.683 147.659 326.426 147.659C328.168 147.659 329.581 148.782 329.581 150.168C329.581 151.554 328.168 152.678 326.426 152.678Z" fill="#E1E4E5"/>
<path d="M199.894 12.7585C200.812 16.1619 198.78 19.6603 195.356 20.5722C191.933 21.4842 188.414 19.4644 187.496 16.061C186.579 12.6575 188.611 9.15915 192.034 8.2472C195.458 7.33524 198.977 9.35501 199.894 12.7585Z" fill="#E1E4E5"/>
<path d="M363.349 135.385H363.431C363.92 142.271 369.071 142.377 369.071 142.377C369.071 142.377 363.391 142.487 363.391 150.443C363.391 142.487 357.711 142.377 357.711 142.377C357.711 142.377 362.86 142.271 363.349 135.385ZM100.72 40.3667H100.863C101.704 52.4168 110.576 52.6025 110.576 52.6025C110.576 52.6025 100.793 52.7954 100.793 66.7191C100.793 52.7954 91.0107 52.6025 91.0107 52.6025C91.0107 52.6025 99.8786 52.4168 100.72 40.3667Z" fill="#E1E4E5"/>
<path d="M149.142 225.228C149.142 225.228 136.001 218.29 134.946 216.529C133.887 214.774 128.838 206.047 124.21 202.614C119.589 199.185 114.868 201.01 112.619 203.974L116.632 210.311C116.632 210.311 109.095 204.543 105.105 205.949C101.115 207.356 100.631 212.003 100.631 212.003C100.631 212.003 103.905 213.73 105.485 215.234C107.064 216.737 122.081 241.63 158.767 248.196C195.453 254.762 198.855 250.004 199.274 249.677C199.693 249.349 201.247 242.312 201.247 242.312L149.142 225.228Z" fill="#F8AE9D"/>
<path opacity="0.1" d="M149.142 225.228C149.142 225.228 136.001 218.29 134.946 216.529C133.887 214.774 128.838 206.047 124.21 202.614C119.589 199.185 114.868 201.01 112.619 203.974L116.632 210.311C116.632 210.311 109.095 204.543 105.105 205.949C101.115 207.356 100.631 212.003 100.631 212.003C100.631 212.003 103.905 213.73 105.485 215.234C107.064 216.737 122.081 241.63 158.767 248.196C195.453 254.762 198.855 250.004 199.274 249.677C199.693 249.349 201.247 242.312 201.247 242.312L149.142 225.228Z" fill="black"/>
<path fill-rule="evenodd" clip-rule="evenodd" d="M243.768 225.738C244.754 226.114 245.622 226.444 246.393 226.69C249.938 227.817 258.346 234.646 258.346 234.646L258.267 234.769C262.832 238.222 265.271 239.898 269.888 242.972C274.023 245.724 290.562 252.298 300.816 256.257C305.082 257.905 306.734 263.061 304.187 266.841L282.627 298.849C280.291 302.318 275.464 303.033 272.224 300.378C261.929 291.943 241.831 275.474 239.156 273.269C237.751 272.11 235.544 271.242 233.371 270.614C231.51 270.358 226.339 269.952 212.752 270.175C204.096 270.316 198.845 272.052 194.342 273.54C188.916 275.333 184.577 276.767 176.679 274.624C176.679 274.624 147.133 260.967 140.164 258.005C133.744 255.272 131.594 253.176 126.47 248.181C126.039 247.76 125.586 247.319 125.108 246.854C122.8 244.617 120.549 242.851 118.339 241.119C115.04 238.531 111.834 236.018 108.679 232.118C105.715 228.461 103.669 227.224 102.462 226.494C101.52 225.925 101.088 225.664 101.13 224.803C101.224 222.838 107.713 219.255 110.952 220.576C114.191 221.898 119.066 226.041 119.066 226.041C119.066 226.041 137.241 239.149 140.481 240.599C142.105 241.328 147.039 242.787 151.962 244.242C156.852 245.688 161.731 247.13 163.346 247.852C166.583 249.307 193.424 249.763 193.424 249.763C192.562 249.396 191.857 249.054 191.375 248.757C189.472 247.589 185.13 247.267 180.263 246.906C176.551 246.631 172.533 246.334 169.058 245.621C163.895 244.565 160.27 243.219 156.246 241.725C154.009 240.895 151.648 240.019 148.833 239.122C140.95 236.609 137.713 231.894 139.936 227.029C142.158 222.164 145.985 220.919 150.043 221.156C154.101 221.392 165.022 222.405 176.073 225.698C184.698 228.274 189.782 226.559 194.994 224.8C196.458 224.306 197.931 223.809 199.496 223.402C206.635 221.547 217.825 220.973 227.544 221.807C235.148 222.459 240.222 224.389 243.768 225.738Z" fill="#F8AE9D"/>
<path fill-rule="evenodd" clip-rule="evenodd" d="M165.015 33.2417C162.448 35.1324 160.168 37.5906 158.347 40.615C149.934 54.5776 143.925 69.6989 140.32 85.3172C127.021 83.5331 114.115 80.8221 102.006 77.1848C114.959 54.2471 137.925 37.6479 165.015 33.2417ZM98.938 83.1368C111.576 87.0091 125.066 89.8893 138.971 91.7781C135.362 111.102 135.361 130.92 138.968 150.244C125.276 152.105 111.987 154.927 99.5174 158.711C93.866 147.104 90.6973 134.078 90.6973 120.317C90.6973 107.034 93.6495 94.4357 98.938 83.1368ZM102.689 164.636C115.405 186.357 137.181 202.189 162.87 207.016C161.171 205.438 159.643 203.573 158.347 201.422C149.932 187.455 143.922 172.328 140.317 156.706C127.268 158.457 114.598 161.101 102.689 164.636ZM146.927 155.898C150.395 170.622 156.095 184.872 164.028 198.038V198.039C171.178 209.911 187.741 209.911 194.891 198.039L194.892 198.038C202.825 184.872 208.525 170.622 211.993 155.898C190.58 153.538 168.339 153.538 146.927 155.898ZM218.603 156.706C214.998 172.328 208.988 187.455 200.573 201.422C199.277 203.572 197.75 205.436 196.053 207.014C221.738 202.184 243.51 186.352 256.224 164.633C244.317 161.099 231.648 158.456 218.603 156.706ZM259.395 158.708C246.927 154.925 233.641 152.104 219.952 150.244C223.559 130.92 223.558 111.1 219.949 91.7761C233.851 89.8867 247.337 87.0058 259.971 83.1335C265.26 94.4331 268.214 107.032 268.214 120.317C268.214 134.077 265.046 147.1 259.395 158.708ZM213.369 149.427C191.055 146.917 167.863 146.917 145.552 149.427C141.997 130.648 141.998 111.374 145.554 92.5951C167.866 95.1046 191.056 95.104 213.365 92.5931C216.923 111.373 216.924 130.647 213.369 149.427ZM146.93 86.1243C168.342 88.4838 190.58 88.4831 211.99 86.1223C208.521 71.404 202.822 57.1596 194.892 43.9975C187.731 32.1232 171.178 32.1265 164.028 43.9969C156.098 57.1596 150.399 71.4053 146.93 86.1243ZM218.6 85.3146C231.895 83.5298 244.798 80.8188 256.903 77.1808C243.95 54.2465 220.988 37.6499 193.901 33.2424C196.468 35.1331 198.749 37.5906 200.573 40.6137L200.573 40.615C208.985 54.577 214.994 69.6976 218.6 85.3146Z" fill="#FF9218"/>
<defs>
<linearGradient id="paint0_linear_0_1" x1="253.329" y1="398.464" x2="117.216" y2="-219.262" gradientUnits="userSpaceOnUse">
<stop stop-color="white"/>
<stop offset="1" stop-color="#EEEEEE"/>
</linearGradient>
<linearGradient id="paint1_linear_0_1" x1="267.61" y1="159.101" x2="208.344" y2="-108.788" gradientUnits="userSpaceOnUse">
<stop stop-color="white"/>
<stop offset="1" stop-color="#EEEEEE"/>
</linearGradient>
<linearGradient id="paint2_linear_0_1" x1="109.368" y1="347.566" x2="47.5739" y2="60.1139" gradientUnits="userSpaceOnUse">
<stop stop-color="white"/>
<stop offset="1" stop-color="#EEEEEE"/>
</linearGradient>
<linearGradient id="paint3_linear_0_1" x1="306.704" y1="112.791" x2="381.451" y2="77.2694" gradientUnits="userSpaceOnUse">
<stop stop-color="white"/>
<stop offset="1" stop-color="#EEEEEE"/>
</linearGradient>
<linearGradient id="paint4_linear_0_1" x1="158.072" y1="42.382" x2="87.5967" y2="-32.3709" gradientUnits="userSpaceOnUse">
<stop stop-color="white"/>
<stop offset="1" stop-color="#EEEEEE"/>
</linearGradient>
<linearGradient id="paint5_linear_0_1" x1="47.3093" y1="171.049" x2="-22.7071" y2="60.6442" gradientUnits="userSpaceOnUse">
<stop stop-color="white"/>
<stop offset="1" stop-color="#EEEEEE"/>
</linearGradient>
</defs>
</svg>
